<svg xmlns="http://www.w3.org/2000/svg">
    <defs>
        <symbol id="speaker" viewBox="0 0 285.255 285.255">
            <path d="M205.917 24.039a5.998 5.998 0 00-7.835 3.256 5.999 5.999 0 003.256 7.835c43.688 18.036 71.917 60.231 71.917 107.497 0 64.098-52.147 116.245-116.246 116.245a6 6 0 000 12c70.715 0 128.246-57.53 128.246-128.245 0-52.142-31.142-98.691-79.338-118.588z"/>
            <path d="M157.009 225.93c45.934 0 83.304-37.37 83.304-83.303s-37.37-83.303-83.304-83.303a6 6 0 000 12c39.317 0 71.304 31.986 71.304 71.303s-31.987 71.303-71.304 71.303a6 6 0 000 12z"/>
            <path d="M176.538 163.604a6 6 0 004.092 10.39 5.978 5.978 0 004.088-1.61c8.231-7.667 12.952-18.513 12.952-29.757 0-22.419-18.24-40.659-40.66-40.659a6 6 0 000 12c15.803 0 28.66 12.856 28.66 28.659-.001 8.042-3.244 15.491-9.132 20.977zM130.79 14.84a6.005 6.005 0 00-6.538 1.296L60.844 79.448H6a6 6 0 00-6 6v114.358a6 6 0 006 6h57.326a6 6 0 000-12H12V91.448h51.326a6 6 0 004.239-1.754l54.926-54.842v215.551L92.864 220.82a6 6 0 00-8.478 8.492l39.867 39.806a5.997 5.997 0 006.538 1.296 6 6 0 003.702-5.542V20.382a6.005 6.005 0 00-3.703-5.542z"/>
        </symbol>
    </defs>
</svg>