<!--490 338-->
<svg width="490" height="338" viewBox="0 0 490 338" fill="none" xmlns="http://www.w3.org/2000/svg">
    <path fill-rule="evenodd" clip-rule="evenodd"
          d="M389.789 110.482C399.648 104.471 411.22 101.011 423.658 101.014C459.896 101.009 489.264 130.392 489.263 166.627C489.263 202.865 459.896 232.243 423.656 232.233C411.221 232.233 399.646 228.774 389.789 222.763C386.08 220.503 381.437 220.429 377.654 222.556C373.871 224.685 371.527 228.689 371.527 233.031V315.712C371.527 327.745 361.415 337.496 349.388 337.496H22.013C9.98 337.496 0 327.745 0 315.712V234.952C0 230.719 2.216 226.797 5.852 224.626C9.489 222.456 13.998 222.362 17.723 224.376C26.99 229.386 37.599 232.233 48.875 232.233C85.114 232.243 114.487 202.865 114.487 166.627C114.487 130.392 85.114 101.01 48.875 101.015C37.6 101.012 26.991 103.858 17.724 108.87C14.003 110.883 9.493 110.781 5.86 108.613C2.227 106.445 0.001 102.526 0.001 98.2953V22.0582C0.001 10.0312 9.982 0.358154 22.014 0.358154H117.759H349.388C361.418 0.358154 371.527 10.0312 371.527 22.0582V100.216C371.527 104.561 373.861 108.569 377.648 110.698C381.435 112.827 386.08 112.744 389.789 110.482Z"
          fill="white"/>
</svg>

