<svg width="54" height="50" viewBox="0 0 54 50" fill="none" xmlns="http://www.w3.org/2000/svg">
<path d="M34.0114 37.2247C33.512 37.2247 33.1035 37.6333 33.1035 38.1327C33.1035 41.1379 30.6612 43.5802 27.6559 43.5802C24.6507 43.5802 22.2084 41.1379 22.2084 38.1327C22.2084 37.6333 21.7999 37.2247 21.3005 37.2247C20.8011 37.2247 20.3926 37.6333 20.3926 38.1327C20.3926 42.1366 23.652 45.396 27.6559 45.396C31.6599 45.396 34.9193 42.1366 34.9193 38.1327C34.9193 37.6333 34.5107 37.2247 34.0114 37.2247Z" fill="#05778F"/>
<path d="M21.3002 33.5931C22.3031 33.5931 23.1161 32.7801 23.1161 31.7773C23.1161 30.7744 22.3031 29.9614 21.3002 29.9614C20.2974 29.9614 19.4844 30.7744 19.4844 31.7773C19.4844 32.7801 20.2974 33.5931 21.3002 33.5931Z" fill="#05778F"/>
<path d="M34.0112 33.5931C35.014 33.5931 35.827 32.7801 35.827 31.7773C35.827 30.7744 35.014 29.9614 34.0112 29.9614C33.0083 29.9614 32.1953 30.7744 32.1953 31.7773C32.1953 32.7801 33.0083 33.5931 34.0112 33.5931Z" fill="#05778F"/>
<path d="M50.3354 19.257C49.9723 7.70824 40.7659 0 27.2016 0C13.6373 0 4.43098 7.70824 4.06781 19.257C1.96143 19.8471 0.417969 21.7719 0.417969 24.0599V36.7708C0.417969 39.5218 2.66053 41.7643 5.41153 41.7643C7.19105 41.7643 8.76176 40.8201 9.64244 39.4128C13.0925 45.8681 19.7476 49.9356 27.2016 49.9356C34.6556 49.9356 41.3107 45.8681 44.7608 39.4128C45.6415 40.8201 47.2122 41.7643 48.9917 41.7643C51.7427 41.7643 53.9853 39.5218 53.9853 36.7708V24.0599C53.9853 21.7719 52.4418 19.8471 50.3354 19.257ZM27.2016 1.81584C37.5701 1.81584 48.0202 7.17257 48.5105 19.0936C47.0941 19.2298 45.8503 19.9561 45.0332 21.0274C43.2355 17.2868 40.3665 14.3179 36.8256 12.4022C33.9929 10.659 30.6608 9.69659 27.0563 9.69659C23.3157 9.69659 19.8838 10.7861 16.9966 12.7109C13.719 14.6266 11.0679 17.4865 9.37006 21.0274C8.54385 19.9561 7.30908 19.2298 5.89273 19.0936C6.383 7.17257 16.8332 1.81584 27.2016 1.81584ZM17.1237 14.7809C20.0109 12.8743 23.4791 11.803 27.2016 11.803C30.2885 11.803 33.1939 12.5475 35.7451 13.8821C39.7945 16.3244 42.7543 20.4918 43.871 25.7577C43.2627 25.9574 42.6907 26.0664 42.146 26.0664C39.6764 26.0664 38.0422 23.9419 36.5804 21.7628C35.954 20.8368 34.5467 20.6279 33.666 21.3361C28.4636 25.4944 22.0991 26.366 17.6775 26.366C14.4544 26.366 11.8214 25.912 10.5594 25.6487C11.5582 20.9911 13.8915 17.2505 17.1237 14.7809ZM5.41153 39.9485C3.65924 39.9485 2.23381 38.5231 2.23381 36.7708V24.0599C2.23381 22.3076 3.65924 20.8822 5.41153 20.8822C6.94592 20.8822 8.22608 21.9717 8.5257 23.4153C8.57109 23.6332 8.58925 23.842 8.58925 24.0599V36.7435C8.58017 36.7889 8.57109 36.8706 8.57109 36.907V36.916C8.49846 38.5957 7.11842 39.9485 5.41153 39.9485ZM43.9981 36.7889C41.2017 43.68 34.6284 48.1198 27.2016 48.1198C19.7748 48.1198 13.2015 43.68 10.4051 36.7889C10.4051 36.7798 10.4051 36.7708 10.4051 36.7708V27.4646C11.8214 27.7551 14.4544 28.1728 17.6775 28.1728C22.3896 28.1728 29.1809 27.2285 34.8009 22.7434C34.9462 22.6254 35.0279 22.6889 35.0733 22.7706C36.3535 24.6773 38.5052 27.8822 42.146 27.8822C42.7452 27.8822 43.3626 27.7824 43.9981 27.6099V36.7708C43.9981 36.7798 43.9981 36.7889 43.9981 36.7889ZM52.1694 36.7708C52.1694 38.5231 50.744 39.9485 48.9917 39.9485C47.2848 39.9485 45.9048 38.5957 45.8321 36.907V36.8979C45.8321 36.8434 45.8231 36.7798 45.814 36.7708V24.0599C45.814 23.842 45.8321 23.6332 45.8775 23.4243C46.1771 21.9717 47.4573 20.8822 48.9917 20.8822C50.744 20.8822 52.1694 22.3076 52.1694 24.0599V36.7708Z" fill="#05778F"/>
</svg>
