<svg width="65" height="34" viewBox="0 0 65 34" fill="none" xmlns="http://www.w3.org/2000/svg">
<path d="M7.39603 33.9425L33.8342 20.724V18.4087L2.76465 33.9425H7.39603Z" fill="#05778F"/>
<path d="M9.71387 33.9424H28.6556V24.4708L9.71387 33.9424Z" fill="#05778F"/>
<path d="M39.0117 33.9424H57.9555L39.0117 24.4708V33.9424Z" fill="#05778F"/>
<path d="M64.9024 30.4679V23.5865H51.1396L64.9024 30.4679Z" fill="#05778F"/>
<path d="M64.9014 6.34766L51.1367 13.2304H64.9028L64.9014 6.34766Z" fill="#05778F"/>
<path d="M27.6211 21.5145H30.7282V33.9424H36.9412V21.5145H64.9036V15.3015H40.047L27.6211 21.5145Z" fill="#05778F"/>
<path d="M0 0.467407V17.3473H22.8214V0.467407H0ZM18.8844 2.72606L19.1472 3.53654H19.9997L19.31 4.03683L19.5741 4.8473L18.8851 4.34701L18.1953 4.8473L18.4595 4.03683L17.7704 3.53654H18.6216L18.8844 2.72606ZM19.5728 8.14323L18.8837 7.64227L18.194 8.14323L18.4581 7.33343L17.7691 6.8318H18.6209L18.8844 6.02133L19.1472 6.8318H19.9997L19.31 7.33343L19.5728 8.14323ZM19.5728 11.4178L18.8837 10.9175L18.194 11.4178L18.4581 10.6073L17.7691 10.1071H18.6209L18.8844 9.29658L19.1472 10.1071H19.9997L19.31 10.6073L19.5728 11.4178ZM17.723 13.0061L17.0346 12.5058L16.3456 13.0061L16.6091 12.1956L15.92 11.694H16.7712L17.0353 10.8842L17.2988 11.694H18.15L17.4616 12.1956L17.723 13.0061ZM15.7952 11.4178L15.1062 10.9175L14.4171 11.4178L14.6813 10.6073L13.9915 10.1071H14.8434L15.1068 9.29658L15.371 10.1071H16.2222L15.5338 10.6073L15.7952 11.4178ZM13.9061 13.0061L13.2171 12.5058L12.5273 13.0061L12.7915 12.1956L12.1024 11.694H12.9543L13.2177 10.8842L13.4806 11.694H14.3324L13.6433 12.1956L13.9061 13.0061ZM11.9563 11.4178L11.2673 10.9175L10.5782 11.4178L10.8423 10.6073L10.1526 10.1071H11.0044L11.2679 9.29658L11.5314 10.1071H12.3839L11.6942 10.6073L11.9563 11.4178ZM10.0879 13.0061L9.39817 12.5058L8.70977 13.0061L8.97325 12.1956L8.28418 11.694H9.13602L9.39884 10.8842L9.66299 11.694H10.5142L9.82509 12.1956L10.0879 13.0061ZM8.19947 11.4178L7.50973 10.9175L6.81999 11.4178L7.08415 10.6073L6.39508 10.1071H7.24758L7.5104 9.29658L7.77388 10.1071H8.62572L7.93665 10.6073L8.19947 11.4178ZM6.26967 13.0061L5.58127 12.5058L4.8922 13.0061L5.15569 12.1956L4.46662 11.694H5.31845L5.58193 10.8842L5.84542 11.694H6.69725L6.00818 12.1956L6.26967 13.0061ZM4.38056 11.4178L3.69149 10.9175L3.00242 11.4178L3.26591 10.6073L2.57617 10.1071H3.42867L3.69216 9.29658L3.95632 10.1071H4.80815L4.11841 10.6073L4.38056 11.4178ZM2.57551 6.8318H3.42801L3.69149 6.02133L3.95565 6.8318H4.80748L4.11774 7.33343L4.38123 8.14323L3.69216 7.64227L3.00309 8.14323L3.26658 7.33343L2.57551 6.8318ZM17.723 6.47692L17.0346 5.97663L16.3456 6.47692L16.6091 5.66645L15.92 5.16482H16.7712L17.0353 4.35568L17.2988 5.16482H18.15L17.4616 5.66645L17.723 6.47692ZM17.723 9.72016L17.0346 9.21853L16.3456 9.72016L16.6091 8.90835L15.92 8.40806H16.7712L17.0353 7.59758L17.2988 8.40806H18.15L17.4616 8.90835L17.723 9.72016ZM16.2208 6.8318L15.5324 7.33343L15.7952 8.14323L15.1062 7.64227L14.4171 8.14323L14.6813 7.33343L13.9915 6.8318H14.8434L15.1068 6.02133L15.371 6.8318H16.2208ZM13.9061 9.72016L13.2171 9.21853L12.5273 9.72016L12.7915 8.90835L12.1024 8.40806H12.9543L13.2177 7.59758L13.4806 8.40806H14.3324L13.6433 8.90835L13.9061 9.72016ZM13.642 5.66712L13.9061 6.47759L13.2171 5.9773L12.5273 6.47759L12.7915 5.66712L12.1024 5.16549H12.9543L13.2177 4.35635L13.4806 5.16549H14.3324L13.642 5.66712ZM12.3833 6.8318L11.6935 7.33343L11.957 8.14323L11.2679 7.64227L10.5789 8.14323L10.843 7.33343L10.1533 6.8318H11.0051L11.2686 6.02133L11.5321 6.8318H12.3833ZM10.0879 9.72016L9.39817 9.21853L8.70977 9.72016L8.97325 8.90835L8.28418 8.40806H9.13602L9.39884 7.59758L9.66299 8.40806H10.5142L9.82509 8.90835L10.0879 9.72016ZM9.82442 5.66712L10.0886 6.47759L9.39884 5.9773L8.71043 6.47759L8.97392 5.66712L8.28485 5.16549H9.13668L9.3995 4.35635L9.66366 5.16549H10.5148L9.82442 5.66712ZM8.62572 6.8318L7.93665 7.33343L8.2008 8.14323L7.51106 7.64227L6.82066 8.14323L7.08481 7.33343L6.39574 6.8318H7.24824L7.51106 6.02133L7.77455 6.8318H8.62572ZM6.26967 9.72016L5.58127 9.21853L4.8922 9.72016L5.15569 8.90835L4.46662 8.40806H5.31845L5.58193 7.59758L5.84542 8.40806H6.69725L6.00818 8.90835L6.26967 9.72016ZM6.00685 5.76451L6.26967 6.57498L5.58127 6.07469L4.8922 6.57498L5.15569 5.76451L4.46662 5.26421H5.31845L5.58193 4.45374L5.84542 5.26421H6.69725L6.00685 5.76451ZM16.7712 1.86823L17.0353 1.05842L17.2988 1.86823H18.15L17.4616 2.36919L17.7244 3.17899L17.036 2.6787L16.3469 3.17899L16.6104 2.36919L15.9213 1.86823H16.7712ZM15.1062 2.72606L15.3703 3.53654H16.2215L15.5331 4.03683L15.7959 4.8473L15.1068 4.34701L14.4178 4.8473L14.6819 4.03683L13.9922 3.53654H14.844L15.1062 2.72606ZM12.9536 1.86823L13.2171 1.05842L13.4799 1.86823H14.3317L13.6427 2.36919L13.9068 3.17899L13.2177 2.6787L12.528 3.17899L12.7922 2.36919L12.1031 1.86823H12.9536ZM11.2673 2.72606L11.5308 3.53654H12.3833L11.6935 4.03683L11.957 4.8473L11.2679 4.34701L10.5789 4.8473L10.843 4.03683L10.1533 3.53654H11.0051L11.2673 2.72606ZM9.13535 1.86823L9.39817 1.05842L9.66232 1.86823H10.5135L9.82442 2.36919L10.0886 3.17899L9.39884 2.6787L8.71043 3.17899L8.97392 2.36919L8.28485 1.86823H9.13535ZM7.50973 2.72606L7.77322 3.53654H8.62505L7.93598 4.03683L8.20013 4.8473L7.5104 4.34701L6.82066 4.8473L7.08481 4.03683L6.39574 3.53654H7.24824L7.50973 2.72606ZM5.31778 1.86823L5.58127 1.05842L5.84476 1.86823H6.69659L6.00752 2.36919L6.27034 3.17899L5.58193 2.6787L4.89286 3.17899L5.15635 2.36919L4.46728 1.86823H5.31778ZM3.69149 2.72606L3.95565 3.53654H4.80748L4.11774 4.03683L4.38123 4.8473L3.69216 4.34701L3.00309 4.8473L3.26658 4.03683L2.57684 3.53654H3.42934L3.69149 2.72606ZM1.55958 1.86823L1.82307 1.05842L2.08656 1.86823H2.93905L2.24932 2.36919L2.5128 3.17899L1.82373 2.6787L1.13466 3.17899L1.39815 2.36919L0.709749 1.86823H1.55958ZM1.55958 5.16549L1.82307 4.35635L2.08656 5.16549H2.93905L2.24932 5.66712L2.5128 6.47759L1.82373 5.9773L1.13466 6.47759L1.39815 5.66712L0.709749 5.16549H1.55958V5.16549ZM1.55958 8.40806L1.82307 7.59758L2.08656 8.40806H2.93905L2.24932 8.90835L2.5128 9.72016L1.82373 9.21853L1.13333 9.72016L1.39682 8.90835L0.708415 8.40806H1.55958V8.40806ZM1.55958 11.694L1.82307 10.8842L2.08656 11.694H2.93905L2.24865 12.1956L2.51214 13.0061L1.82307 12.5058L1.134 13.0061L1.39749 12.1956L0.709082 11.694H1.55958ZM2.51214 16.3013L1.82307 15.8004L1.13333 16.3013L1.39682 15.4902L0.708415 14.9906H1.55958L1.82307 14.1794L2.08656 14.9906H2.93905L2.24932 15.4902L2.51214 16.3013ZM3.69149 14.1287L3.00242 14.6297L3.26591 13.8192L2.57617 13.3183H3.42867L3.69216 12.5085L3.95632 13.3183H4.80815L4.11841 13.8192L4.3819 14.6297L3.69149 14.1287ZM6.26967 16.3013L5.58127 15.8004L4.8922 16.3013L5.15569 15.4902L4.46528 14.9906H5.31711L5.5806 14.1794L5.84409 14.9906H6.69592L6.00685 15.4902L6.26967 16.3013ZM7.50973 14.1287L6.81999 14.6297L7.08415 13.8192L6.39508 13.3183H7.24758L7.5104 12.5085L7.77388 13.3183H8.62572L7.93665 13.8192L8.2008 14.6297L7.50973 14.1287ZM10.0879 16.3013L9.39817 15.8004L8.70977 16.3013L8.97325 15.4902L8.28418 14.9906H9.13602L9.39884 14.1794L9.66299 14.9906H10.5142L9.82509 15.4902L10.0879 16.3013ZM11.2673 14.0694L10.5782 14.5703L10.8423 13.7599L10.1526 13.2582H11.0044L11.2679 12.4484L11.5314 13.2582H12.3839L11.6942 13.7599L11.9577 14.5703L11.2673 14.0694ZM13.9061 16.3614L13.2171 15.8604L12.5273 16.3614L12.7915 15.5502L12.1024 15.0499H12.9543L13.2177 14.2395L13.4806 15.0499H14.3324L13.6433 15.5502L13.9061 16.3614ZM15.1062 14.1287L14.4171 14.6304L14.6813 13.8192L13.9915 13.3183H14.8434L15.1068 12.5085L15.371 13.3183H16.2222L15.5338 13.8192L15.7966 14.6304L15.1062 14.1287ZM17.723 16.3013L17.0346 15.8004L16.3456 16.3013L16.6091 15.4902L15.92 14.9906H16.7712L17.0353 14.1794L17.2988 14.9906H18.15L17.4616 15.4902L17.723 16.3013ZM18.8844 14.1287L18.1947 14.6304L18.4588 13.8192L17.7697 13.3183H18.6209L18.8851 12.5085L19.1479 13.3183H20.0004L19.3106 13.8192L19.5748 14.6304L18.8844 14.1287ZM21.4619 16.3013L20.7722 15.8004L20.0824 16.3013L20.3466 15.4902L19.6575 14.9906H20.51L20.7728 14.1794L21.0363 14.9906H21.8881L21.1991 15.4902L21.4619 16.3013ZM21.1977 12.1956L21.4619 13.0061L20.7722 12.5058L20.0824 13.0061L20.3466 12.1956L19.6575 11.694H20.51L20.7728 10.8842L21.0363 11.694H21.8881L21.1977 12.1956ZM21.1977 8.90835L21.4619 9.72016L20.7722 9.21853L20.0824 9.72016L20.3466 8.90835L19.6575 8.40806H20.51L20.7728 7.59758L21.0363 8.40806H21.8881L21.1977 8.90835ZM21.1977 5.66712L21.4619 6.47759L20.7722 5.9773L20.0824 6.47759L20.3466 5.66712L19.6575 5.16549H20.51L20.7728 4.35635L21.0363 5.16549H21.8881L21.1977 5.66712ZM21.1977 2.36919L21.4619 3.17899L20.7722 2.6787L20.0824 3.17899L20.3466 2.36919L19.6575 1.86823H20.51L20.7728 1.05842L21.0363 1.86823H21.8881L21.1977 2.36919Z" fill="#05778F"/>
<path d="M4.44193 29.3109H0V31.5322L4.44193 29.3109Z" fill="#05778F"/>
<path d="M0 24.5255V26.9369H9.18938L14.0122 24.5255H0Z" fill="#05778F"/>
<path d="M0 19.7401V22.1522H18.759L23.5825 19.7401H0Z" fill="#05778F"/>
<path d="M22.8359 14.9352V17.3466H28.3698L33.192 14.9352H22.8359Z" fill="#05778F"/>
<path d="M22.832 10.0383V12.4504H38.1623L42.9852 10.0383H22.832Z" fill="#05778F"/>
<path d="M22.832 5.25354V7.66428H47.7333L52.5561 5.25354H22.832Z" fill="#05778F"/>
<path d="M57.3056 2.87815L62.1284 0.467407H22.832V2.87815H57.3056Z" fill="#05778F"/>
</svg>
