<svg width="50" height="51" viewBox="0 0 50 51" fill="none" xmlns="http://www.w3.org/2000/svg">
<path d="M28.1354 9.60929V14.505C28.1354 15.1391 28.4633 15.7064 29.0126 16.024C29.5537 16.3355 30.2299 16.3334 30.7666 16.0213C31.0552 15.854 31.3864 15.7655 31.7226 15.7655C32.7753 15.7655 33.6318 16.622 33.6318 17.6747C33.6318 18.7274 32.7753 19.5839 31.7226 19.5839C31.3859 19.5839 31.0552 19.4953 30.7672 19.3275C30.2282 19.0149 29.5554 19.0133 29.0121 19.3259C28.4628 19.6429 28.1354 20.2103 28.1354 20.8438V29.26H22.7898C22.7411 29.26 22.7187 29.2475 22.6936 29.2054C22.6679 29.1639 22.6673 29.1382 22.6898 29.0933C22.9822 28.5287 23.1369 27.8914 23.1369 27.2519C23.1369 25.0421 21.3392 23.2438 19.1293 23.2438C17.788 23.2438 16.6019 23.9085 15.8739 24.9229C15.9291 24.7874 15.9679 24.6442 15.9881 24.4944C16.069 23.8828 15.8312 23.2864 15.3513 22.8989C15.054 22.6595 14.8261 22.36 14.6719 22.0085C14.4178 21.4292 14.4047 20.7858 14.6342 20.1966C14.8638 19.6074 15.3092 19.1428 15.8886 18.8881C16.1914 18.7553 16.5112 18.688 16.838 18.688C17.7787 18.688 18.6303 19.2445 19.0085 20.1053C19.1627 20.4568 19.2282 20.8274 19.2037 21.2078C19.1643 21.832 19.4349 22.3961 19.9476 22.7563C20.4504 23.1088 21.0932 23.1722 21.6578 22.9252L28.0534 20.1168L24.0108 10.9102C23.9906 10.8648 23.9939 10.8369 24.0223 10.7976C24.0546 10.7544 24.0786 10.7527 24.1267 10.7517C24.7433 10.8216 25.3713 10.7265 25.9463 10.474C27.738 9.68691 28.5557 7.58912 27.7686 5.79742C27.2029 4.50803 25.9266 3.67449 24.5181 3.67449C24.0262 3.67449 23.5463 3.77561 23.092 3.97457C22.5203 4.22654 22.024 4.62445 21.6567 5.12622C21.6245 5.1694 21.596 5.17213 21.554 5.17158C21.5042 5.16612 21.4824 5.15027 21.4621 5.10435L19.4939 0.621826L0 9.18241L8.55894 28.6768L14.9545 25.869C15.2059 25.7592 15.4147 25.5892 15.5842 25.3886C15.2901 25.9461 15.1212 26.5791 15.1212 27.253C15.1212 27.8925 15.2759 28.5298 15.5694 29.0955C15.5913 29.1393 15.5907 29.1649 15.5656 29.2065C15.5399 29.248 15.5175 29.2611 15.4683 29.2611H8.48461V50.5511H28.0479V50.5544H49.339V30.9009V29.2633V9.60929H28.1354ZM14.2959 24.3676L9.40178 26.5162L2.16064 10.0247L18.6521 2.78411L19.9612 5.76517C20.2165 6.34619 20.745 6.73372 21.3758 6.80313C22.0147 6.87474 22.6089 6.60472 22.9811 6.09531C23.1779 5.82639 23.4457 5.61213 23.7529 5.47658C23.9972 5.36945 24.2552 5.31479 24.5192 5.31479C25.2773 5.31479 25.9643 5.76299 26.2688 6.45769C26.6918 7.42132 26.2524 8.55001 25.2877 8.97416C24.9788 9.10917 24.6432 9.16109 24.3098 9.12283C23.6692 9.05232 23.0778 9.31742 22.704 9.82574C22.3274 10.3368 22.2552 10.9883 22.5105 11.5693L25.8927 19.274L20.9478 21.4374C20.9412 21.4374 20.9216 21.4374 20.8899 21.4144C20.8489 21.3854 20.8374 21.3619 20.8407 21.3138C20.8817 20.6781 20.7674 20.0326 20.51 19.4462C19.8705 17.9901 18.4291 17.0488 16.8386 17.0488C16.2827 17.0488 15.7416 17.1625 15.23 17.3877C14.2494 17.8179 13.4957 18.6044 13.1071 19.6014C12.7179 20.5989 12.7409 21.6877 13.171 22.6672C13.4274 23.2526 13.8253 23.774 14.3216 24.1752C14.3593 24.2063 14.3697 24.2304 14.3631 24.2779C14.356 24.3271 14.3412 24.3479 14.2959 24.3676ZM29.7751 20.8449C29.7751 20.7957 29.7888 20.7716 29.832 20.747C29.8751 20.7224 29.9019 20.7219 29.9446 20.7465C30.4824 21.0591 31.0978 21.2242 31.7231 21.2242C33.6799 21.2242 35.2721 19.632 35.2721 17.6752C35.2721 15.7185 33.6799 14.1263 31.7231 14.1263C31.0984 14.1263 30.4835 14.2913 29.9435 14.604C29.903 14.6275 29.8746 14.6275 29.8325 14.604C29.7893 14.5788 29.7757 14.5548 29.7757 14.505V11.249H47.6998V29.2611H42.0284C41.9913 29.2579 41.9683 29.2464 41.9459 29.2109C41.9202 29.1682 41.9191 29.1436 41.9393 29.1032C41.9738 29.0338 42.0158 28.9633 42.0667 28.8884C42.5154 28.2297 42.7526 27.4602 42.7526 26.6627C42.7526 24.4829 40.9801 22.7103 38.8008 22.7103C36.6216 22.7103 34.8485 24.4829 34.8485 26.6627C34.8485 27.4602 35.0857 28.2297 35.535 28.8884C35.5847 28.9611 35.6268 29.0305 35.6607 29.101C35.682 29.1447 35.6809 29.1693 35.6553 29.2098C35.6328 29.2458 35.6099 29.2579 35.5727 29.2611H29.7751V20.8449ZM10.1244 48.9114V30.9009H15.4694C16.0865 30.9009 16.6462 30.5861 16.9676 30.0575C17.2879 29.5301 17.3097 28.8884 17.0255 28.3407C16.8501 28.0035 16.7615 27.6372 16.7615 27.253C16.7615 25.9472 17.8235 24.8847 19.1293 24.8847C20.4351 24.8847 21.4971 25.9467 21.4971 27.253C21.4971 27.6361 21.4086 28.0035 21.2342 28.3407C20.9494 28.8884 20.9718 29.5301 21.2921 30.0586C21.613 30.5861 22.1721 30.9009 22.7892 30.9009H28.0474V37.5976C28.0474 37.6583 27.9954 37.7108 27.9348 37.7108H27.8697C27.5472 37.7108 27.2849 37.6299 27.0181 37.4473C26.3601 36.9991 25.5905 36.7619 24.7925 36.7619C22.6132 36.7619 20.8407 38.5339 20.8407 40.7137C20.8407 42.8924 22.6132 44.6655 24.7925 44.6655C25.5905 44.6655 26.3601 44.4283 27.0181 43.979C27.2843 43.7975 27.5472 43.7166 27.8697 43.7166H27.9348C27.9954 43.7166 28.0474 43.7691 28.0474 43.8298V48.9114H10.1244V48.9114ZM47.6992 48.9146H29.6877V43.8298C29.6877 42.8634 28.9017 42.0769 27.9353 42.0769H27.8703C27.216 42.0769 26.6344 42.2562 26.0944 42.6256C25.7102 42.8875 25.2603 43.0257 24.793 43.0257C23.5178 43.0257 22.481 41.9883 22.481 40.7137C22.481 39.438 23.5178 38.4017 24.793 38.4017C25.2598 38.4017 25.7102 38.5405 26.0944 38.8018C26.6344 39.1712 27.216 39.3505 27.8703 39.3505H27.9353C28.9017 39.3505 29.6877 38.564 29.6877 37.5976V30.9031H35.5591C36.1783 30.9031 36.7211 30.6008 37.0485 30.0745C37.3754 29.5481 37.4043 28.9277 37.1305 28.3751C37.066 28.2429 36.9856 28.1062 36.8889 27.9641C36.6271 27.5799 36.4883 27.1295 36.4883 26.6627C36.4883 25.3875 37.5257 24.3501 38.8008 24.3501C40.076 24.3501 41.1129 25.387 41.1129 26.6627C41.1129 27.1295 40.9741 27.5799 40.7128 27.9641C40.616 28.1051 40.5379 28.2396 40.4712 28.3729C40.1968 28.9283 40.2263 29.5481 40.5526 30.0745C40.88 30.6008 41.4228 30.9031 42.0421 30.9031H47.6998V48.9146H47.6992Z" fill="#05778F"/>
</svg>
