<?xml version="1.0" encoding="utf-8"?>
<!-- Generator: Adobe Illustrator 24.1.0, SVG Export Plug-In . SVG Version: 6.00 Build 0)  -->
<svg version="1.1" id="Слой_1" xmlns="http://www.w3.org/2000/svg" xmlns:xlink="http://www.w3.org/1999/xlink" x="0px" y="0px"
	 viewBox="0 0 463 463" style="enable-background:new 0 0 463 463;" xml:space="preserve">
<style type="text/css">
	.st0{fill:#05778F;}
</style>
<path class="st0" d="M455.5,364h-5.3l-45.9-38.3c-1.9-1.6-4.5-2.1-6.9-1.5L351,337.6v-30.1v-8c0-0.3,0.2-0.5,0.5-0.5
	c13,0,23.5-10.5,23.5-23.5V259h24.5c13,0,23.5-10.5,23.5-23.5S412.5,212,399.5,212h-9.7c-3.1-9.3-11.9-16-22.3-16h-56
	c-13,0-23.5,10.5-23.5,23.5c0,0.2,0,0.3,0,0.5h-8.5c-13,0-23.5,10.5-23.5,23.5c0,13,10.5,23.5,23.5,23.5H312v24.5
	c0,13,10.5,23.5,23.5,23.5h0.5v24.1l-36.6-22c-1.7-1-3.7-1.3-5.7-0.8l-93.3,23.3l-1.4-0.7v-87.4v-8c0-4.7,3.8-8.5,8.5-8.5
	c17.4,0,31.5-14.1,31.5-31.5V179h76.5c15.2,0,27.5-12.3,27.5-27.5S330.7,124,315.5,124H276c1.9-3.8,3-8,3-12.5
	c0-15.2-12.3-27.5-27.5-27.5h-104c-10.9,0-20.6,6.5-25,16h-23C84.3,100,72,112.3,72,127.5c0,4.5,1.1,8.7,3,12.5H51.5
	C36.3,140,24,152.3,24,167.5S36.3,195,51.5,195H144v32.5c0,17.4,14.1,31.5,31.5,31.5h8.5v72.4l-29.1-14.6c-0.6-0.3-1.2-0.5-1.9-0.6
	l-40-8c-1.8-0.4-3.7,0-5.3,0.9l-94.2,55h-6c-4.1,0-7.5,3.4-7.5,7.5s3.4,7.5,7.5,7.5h448c4.1,0,7.5-3.4,7.5-7.5S459.6,364,455.5,364
	L455.5,364z M39,167.5c0-6.9,5.6-12.5,12.5-12.5h48c4.1,0,7.5-3.4,7.5-7.5s-3.4-7.5-7.5-7.5c-6.9,0-12.5-5.6-12.5-12.5
	S92.6,115,99.5,115h28.4c3.6,0,6.6-2.5,7.4-6c1.2-5.8,6.3-10,12.2-10h104c6.9,0,12.5,5.6,12.5,12.5s-5.6,12.5-12.5,12.5
	c-4.1,0-7.5,3.4-7.5,7.5s3.4,7.5,7.5,7.5h64c6.9,0,12.5,5.6,12.5,12.5s-5.6,12.5-12.5,12.5H183.1c-3.6,0-6.6,2.5-7.4,6
	c-1.2,5.8-6.3,10-12.2,10h-112C44.6,180,39,174.4,39,167.5z M159,227.5V195h4.5c10.9,0,20.6-6.5,25-16H224v24.5
	c0,9.1-7.4,16.5-16.5,16.5c-13,0-23.5,10.5-23.5,23.5v0.5h-8.5C166.4,244,159,236.6,159,227.5z M397.7,339.8l29,24.2h-49.2
	l-20.8-12.5L397.7,339.8z M271,243.5c0-4.7,3.8-8.5,8.5-8.5h18.2c2.7,0,5.2-1.4,6.5-3.8s1.3-5.2,0-7.5c-0.8-1.4-1.2-2.8-1.2-4.2
	c0-4.7,3.8-8.5,8.5-8.5h56c4.7,0,8.5,3.8,8.5,8.5c0,4.1,3.4,7.5,7.5,7.5h16c4.7,0,8.5,3.8,8.5,8.5s-3.8,8.5-8.5,8.5h-66.4
	c-2.7,0-5.1,1.4-6.5,3.7c-1.6,2.7-4.2,4.3-7.1,4.3h-40C274.8,252,271,248.2,271,243.5L271,243.5z M327,291.5v-25.8
	c3.8-1.3,7.2-3.6,9.9-6.7H360v16.5c0,4.7-3.8,8.5-8.5,8.5c-8.5,0-15.5,7-15.5,15.5v0.5h-0.5C330.8,300,327,296.2,327,291.5z
	 M294.3,331.5l41.7,25v7.5h-86.7L221,349.9L294.3,331.5L294.3,331.5z M215.7,364H199v-8.4L215.7,364z M112.8,323.4l36.2,7.2l35,17.5
	V364H43.2L112.8,323.4L112.8,323.4z"/>
</svg>
