<svg width="48" height="50" viewBox="0 0 48 50" fill="none" xmlns="http://www.w3.org/2000/svg">
<mask id="path-1-outside-1" maskUnits="userSpaceOnUse" x="0" y="0.0384521" width="48" height="50" fill="black">
<rect fill="white" y="0.0384521" width="48" height="50"/>
<path d="M22.9019 12.1675C23.0338 12.0268 23.2548 12.0207 23.3946 12.1526C23.5352 12.2845 23.5413 12.5055 23.4094 12.6453L16.2643 20.2279C16.259 20.2332 16.2538 20.2393 16.2477 20.2445C15.9909 20.4969 15.7227 20.6315 15.4388 20.6393C15.1462 20.6472 14.8667 20.5223 14.6003 20.2532L9.77946 15.3941C9.77073 15.3854 9.76287 15.3766 9.75588 15.3679L9.75501 15.3688C9.53925 15.1024 9.42046 14.8159 9.38115 14.5355C9.34359 14.2708 9.37941 14.0123 9.47112 13.7817C9.56371 13.5484 9.71308 13.3449 9.90263 13.1921C10.0939 13.0375 10.328 12.9309 10.5883 12.8942C10.8827 12.8532 11.1194 12.8863 11.3352 12.9807C11.5404 13.0706 11.709 13.2078 11.8846 13.3851L15.0929 16.6196C15.217 16.7445 15.3244 16.803 15.4179 16.8004C15.5157 16.7978 15.6284 16.7314 15.7559 16.6065L22.8993 9.02558C23.0312 8.88495 23.2522 8.87884 23.392 9.01073C23.5326 9.14263 23.5387 9.36362 23.4068 9.50337L16.2616 17.086L16.2538 17.0948C15.9952 17.3524 15.7236 17.4896 15.4371 17.4974C15.1445 17.5053 14.8649 17.3804 14.5985 17.1113L11.3902 13.8769C11.2714 13.7572 11.1657 13.6672 11.0565 13.6201C10.9587 13.5773 10.8416 13.5633 10.6835 13.5851C10.5551 13.6035 10.439 13.6568 10.3411 13.7354C10.2415 13.8157 10.1638 13.9205 10.1166 14.0385C10.0686 14.159 10.0502 14.297 10.0703 14.4403C10.0922 14.5966 10.1621 14.7617 10.2913 14.9233L15.092 19.7623C15.2161 19.8873 15.3235 19.9458 15.417 19.9432C15.5148 19.9405 15.6275 19.8742 15.755 19.7492L22.8984 12.1683L22.9019 12.1675ZM7.26643 23.9926L6.75806 23.5131L7.2376 23.0047L7.74598 23.4842L7.26643 23.9926ZM1.50837 30.0886L1 29.609L1.47955 29.1007L1.98792 29.5802L1.50837 30.0886ZM3.42743 28.0569L2.91906 27.5773L3.39861 27.069L3.90698 27.5485L3.42743 28.0569ZM5.34649 26.0252L4.83812 25.5456L5.31767 25.0373L5.82604 25.5168L5.34649 26.0252ZM29.516 12.1745L29.53 12.2374L29.5466 12.3125L29.5623 12.3876L29.578 12.4636L29.5929 12.5396L29.6077 12.6156L29.6217 12.6916L29.6357 12.7676L29.6488 12.8444L30.338 12.7274L30.324 12.647L30.31 12.5667L30.2952 12.4863L30.2803 12.4068L30.2646 12.3273L30.2489 12.2478L30.2323 12.1683L30.2157 12.0889L30.2017 12.026L29.5186 12.1745H29.516ZM18.1886 1.81678L18.213 1.82028L18.2873 1.83076L18.3615 1.84124L18.4358 1.85259L18.51 1.86395L18.5843 1.87531L18.6576 1.88753L18.731 1.89976L18.8044 1.91286L18.8612 1.92335L18.9878 1.23592L18.9275 1.22457L18.8498 1.21059L18.7721 1.19749L18.6943 1.18439L18.6166 1.17216L18.5388 1.15993L18.4611 1.14857L18.3834 1.13722L18.3047 1.12674L18.2803 1.12324L18.1886 1.81591V1.81678ZM20.8335 2.44306L20.8789 2.45879L20.9479 2.48324L21.0169 2.50858L21.0859 2.53391L21.1549 2.55924L21.224 2.58544L21.2921 2.61165L21.3602 2.63872L21.4284 2.6658L21.4703 2.6824L21.7349 2.03515L21.6895 2.01681L21.6179 1.98798L21.5463 1.96003L21.4738 1.93208L21.4013 1.905L21.3288 1.87793L21.2563 1.85085L21.1838 1.82464L21.1104 1.79844L21.065 1.78272L20.8326 2.44219L20.8335 2.44306ZM23.2985 3.59343L23.3256 3.61003L23.3876 3.64759L23.4496 3.68602L23.5116 3.72445L23.5736 3.76289L23.6348 3.80219L23.6959 3.8415L23.7571 3.88081L23.8182 3.92099L23.8741 3.95767L24.2628 3.37681L24.2043 3.3375L24.1405 3.29558L24.0759 3.25365L24.0113 3.2126L23.9466 3.17154L23.882 3.13049L23.8165 3.09031L23.751 3.05013L23.6855 3.01082L23.6584 2.99423L23.2985 3.59343ZM25.4822 5.21635L25.5364 5.26614L25.5897 5.31593L25.6429 5.36572L25.6962 5.4155L25.7486 5.46617L25.801 5.51683L25.8535 5.56749L25.905 5.61902L25.9565 5.67056L25.9723 5.68715L26.471 5.19713L26.4518 5.17792L26.3976 5.12376L26.3435 5.06961L26.2885 5.01632L26.2334 4.96304L26.1784 4.90976L26.1225 4.85735L26.0666 4.80494L26.0107 4.75254L25.953 4.70013L25.4814 5.21635H25.4822ZM27.2938 7.24282L27.3253 7.28649L27.3681 7.34589L27.4109 7.40616L27.4528 7.46643L27.4947 7.5267L27.5358 7.58697L27.5769 7.64811L27.6179 7.70925L27.6581 7.7704L27.6799 7.80446L28.2669 7.4245L28.2425 7.38694L28.1997 7.3223L28.1569 7.25766L28.1132 7.1939L28.0695 7.13014L28.0258 7.06637L27.9813 7.00348L27.9367 6.94059L27.8922 6.8777L27.8607 6.83403L27.2938 7.24194V7.24282ZM28.6582 9.59421L28.6844 9.65274L28.715 9.72087L28.7447 9.789L28.7744 9.858L28.8032 9.92701L28.8321 9.99601L28.86 10.065L28.888 10.1349L28.922 10.2222L29.5737 9.97068L29.5658 9.94972L29.537 9.87635L29.5073 9.80297L29.4776 9.7296L29.447 9.6571L29.4164 9.58461L29.3859 9.51211L29.3544 9.43961L29.323 9.36798L29.2968 9.30946L28.6582 9.59334V9.59421ZM9.30167 27.1458C9.16103 27.0148 9.15317 26.7938 9.2842 26.6532C9.41522 26.5126 9.63621 26.5047 9.77684 26.6357C9.85284 26.7065 10.0712 26.8296 10.2905 26.9449C10.5246 27.0681 10.756 27.1782 10.8408 27.2183C11.8767 27.7092 12.9817 28.07 14.1329 28.2822C15.2484 28.4875 16.4101 28.553 17.5981 28.4613C17.9999 28.4307 18.3965 28.3818 18.7869 28.3172C19.2979 27.3135 19.9259 26.3763 20.6544 25.5264C22.6731 23.1715 25.463 21.4779 28.6722 20.8586C29.6479 18.8129 30.117 16.4921 29.93 14.0699C29.9161 13.8777 30.0602 13.71 30.2524 13.6961C30.4445 13.6821 30.6122 13.8262 30.6262 14.0184C30.8097 16.396 30.3912 18.681 29.4994 20.7249C29.7571 20.6909 30.0165 20.6638 30.2777 20.6437C31.5224 20.5476 32.7436 20.6175 33.9202 20.8341C35.1343 21.0577 36.2969 21.4368 37.3844 21.9522C37.4726 21.9941 37.7146 22.1094 37.9618 22.2387C38.2238 22.3767 38.4955 22.533 38.6248 22.6544C38.7654 22.7854 38.7733 23.0064 38.6423 23.1471C38.5112 23.2877 38.2902 23.2956 38.1496 23.1645C38.0736 23.0938 37.8552 22.9706 37.636 22.8553C37.4019 22.7322 37.1704 22.6221 37.0857 22.5819C36.0497 22.091 34.9448 21.7303 33.7935 21.518C32.678 21.3128 31.5163 21.2473 30.3284 21.339C29.9266 21.3695 29.53 21.4185 29.1395 21.4831C28.6285 22.4867 28.0005 23.424 27.272 24.2739C25.2534 26.6287 22.4634 28.3224 19.2542 28.9417C18.2785 30.9874 17.8095 33.3082 17.9964 35.7304C18.0104 35.9225 17.8663 36.0902 17.6741 36.1042C17.4819 36.1182 17.3142 35.9741 17.3002 35.7819C17.1168 33.4043 17.5352 31.1193 18.427 29.0754C18.1694 29.1094 17.9099 29.1365 17.6488 29.1566C16.404 29.2527 15.1829 29.1828 14.0063 28.9662C12.7921 28.7426 11.6295 28.3635 10.542 27.8481C10.4538 27.8062 10.2118 27.6909 9.96465 27.5616C9.7026 27.4236 9.43094 27.2673 9.30167 27.1458ZM19.6726 28.1372C22.4923 27.4699 24.9415 25.9221 26.7435 23.8196C27.3157 23.1523 27.8214 22.4291 28.2538 21.6604C25.4342 22.3277 22.9849 23.8755 21.1829 25.978C20.6108 26.6453 20.105 27.3686 19.6726 28.1372ZM15.486 1.03939C15.6782 1.02541 15.8459 1.16954 15.8598 1.3617C15.8738 1.55387 15.7297 1.72157 15.5375 1.73555C11.8479 2.01943 8.62209 3.7725 6.39032 6.37633C4.15855 8.98016 2.91993 12.4365 3.20469 16.1278C3.2999 17.3673 3.56108 18.5535 3.96288 19.6654C4.37954 20.8158 4.94731 21.8893 5.64086 22.8632C5.75267 23.0195 5.71598 23.2379 5.55875 23.3488C5.4024 23.4606 5.18403 23.424 5.07309 23.2667C4.34285 22.2421 3.74538 21.1127 3.30777 19.9021C2.88325 18.729 2.60897 17.4808 2.50852 16.1785C2.20979 12.2976 3.51304 8.66221 5.86098 5.92212C8.2098 3.18203 11.6033 1.33724 15.4851 1.03851L15.486 1.03939ZM10.1839 24.0459L9.67552 23.5663L10.1551 23.058L10.6634 23.5375L10.1839 24.0459ZM4.42583 30.1419L3.91746 29.6623L4.39701 29.154L4.90538 29.6335L4.42583 30.1419ZM6.3449 28.1102L5.83652 27.6306L6.31607 27.1223L6.82444 27.6018L6.3449 28.1102ZM8.26396 26.0785L7.75558 25.5989L8.23513 25.0906L8.7435 25.5701L8.26396 26.0785ZM40.6609 25.8059L41.1693 26.2855L40.6897 26.7938L40.1813 26.3143L40.6609 25.8059ZM46.4189 19.7099L46.9273 20.1895L46.4478 20.6978L45.9394 20.2183L46.4189 19.7099ZM44.4999 21.7416L45.0083 22.2212L44.5287 22.7295L44.0203 22.25L44.4999 21.7416ZM42.5808 23.7734L43.0892 24.2529L42.6097 24.7613L42.1013 24.2817L42.5808 23.7734ZM36.9931 38.2862C37.208 38.5534 37.3259 38.8382 37.3652 39.116C37.4019 39.3797 37.367 39.6374 37.2761 39.8671C37.1844 40.0977 37.0359 40.3004 36.8464 40.4541C36.6533 40.6105 36.4192 40.7179 36.1589 40.7546C35.8645 40.7957 35.6278 40.7625 35.4121 40.6681C35.2068 40.5782 35.0382 40.441 34.8627 40.2637L31.6543 37.0292C31.5303 36.9043 31.4228 36.8458 31.3294 36.8484C31.2298 36.851 31.1154 36.92 30.9852 37.0493L27.7673 40.282C27.7585 40.2908 27.7489 40.2995 27.7393 40.3074L27.7402 40.3083C27.4589 40.5354 27.1611 40.6594 26.8711 40.7004C26.6029 40.738 26.3452 40.7039 26.1164 40.6131C25.8849 40.5214 25.6831 40.3729 25.5294 40.1833C25.3748 39.9929 25.27 39.7597 25.2333 39.5003C25.1922 39.2059 25.2254 38.9692 25.3198 38.7535C25.4097 38.5482 25.5469 38.3796 25.7242 38.204L28.9587 34.9958C29.0836 34.8717 29.1422 34.7643 29.1395 34.6708C29.1369 34.5713 29.0679 34.4568 28.9386 34.3267L25.7364 31.1394C25.7268 31.1298 25.7189 31.1202 25.7102 31.1105C25.4962 30.8433 25.3783 30.5585 25.3398 30.2807C25.3023 30.0135 25.3381 29.7532 25.4307 29.5217C25.5242 29.2894 25.6753 29.085 25.8674 28.9312C26.0587 28.7775 26.2911 28.6727 26.5488 28.6369C26.8431 28.5958 27.0798 28.629 27.2956 28.7233C27.5009 28.8133 27.6694 28.9504 27.845 29.1278L31.0534 32.3622C31.1774 32.4871 31.2848 32.5457 31.3783 32.543C31.4779 32.5404 31.5923 32.4714 31.7224 32.343L34.9317 29.1103C34.9404 29.1016 34.9491 29.0937 34.9579 29.0867L34.957 29.0858C35.2365 28.8579 35.5344 28.7329 35.8235 28.6928C36.0882 28.6552 36.3441 28.6893 36.5712 28.7792C36.8018 28.8701 37.0027 29.0168 37.1556 29.2038C37.3128 29.3959 37.4194 29.6309 37.456 29.8929C37.4971 30.1873 37.4639 30.424 37.3696 30.6397C37.2796 30.845 37.1425 31.0136 36.9651 31.1892L33.7306 34.3974C33.6057 34.5215 33.5472 34.6289 33.5498 34.7224C33.5524 34.8219 33.6214 34.9364 33.7498 35.0665L36.9608 38.2538C36.9721 38.2652 36.9826 38.2765 36.9922 38.2888L36.9931 38.2862ZM36.6743 39.2112C36.6524 39.0548 36.5834 38.8915 36.4576 38.7316L33.258 35.5548C33.0004 35.2962 32.8632 35.0246 32.8554 34.7381C32.8475 34.4455 32.9724 34.166 33.2415 33.8996L36.476 30.6913C36.5957 30.5725 36.6856 30.4668 36.7328 30.3576C36.7756 30.2598 36.7896 30.1427 36.7677 29.9846C36.7494 29.8562 36.6961 29.7392 36.6166 29.6422C36.538 29.5462 36.4358 29.471 36.3188 29.4256C36.1982 29.3784 36.0628 29.3601 35.9205 29.3802C35.7562 29.4029 35.5815 29.478 35.4086 29.6169L32.2151 32.8339C31.9565 33.0916 31.6849 33.2287 31.3984 33.2366C31.1058 33.2445 30.8262 33.1195 30.5598 32.8505L27.3515 29.616C27.2327 29.4964 27.127 29.4064 27.0178 29.3592C26.92 29.3164 26.8021 29.3025 26.6448 29.3243C26.5164 29.3426 26.4003 29.395 26.3051 29.4719C26.2055 29.5514 26.1269 29.658 26.0788 29.7785C26.0299 29.9008 26.0116 30.0388 26.0317 30.1829C26.0535 30.3375 26.1207 30.5 26.2439 30.6581L29.433 33.8323C29.6907 34.0908 29.8278 34.3625 29.8357 34.649C29.8436 34.9416 29.7187 35.2211 29.4496 35.4875L26.2151 38.6958C26.0954 38.8146 26.0054 38.9203 25.9583 39.0295C25.9155 39.1273 25.9015 39.2444 25.9233 39.4025C25.9408 39.5291 25.9941 39.6453 26.0718 39.7414C26.1496 39.8374 26.2535 39.9134 26.3723 39.9606C26.4937 40.0086 26.6317 40.027 26.775 40.0069C26.941 39.9833 27.1174 39.9082 27.293 39.7684L30.4934 36.5532C30.752 36.2955 31.0237 36.1584 31.3102 36.1505C31.6028 36.1426 31.8823 36.2676 32.1487 36.5366L35.357 39.7711C35.4758 39.8907 35.5815 39.9807 35.6907 40.0279C35.7886 40.0707 35.9056 40.0846 36.0637 40.0628C36.1939 40.0445 36.3109 39.9912 36.407 39.9126C36.5048 39.8331 36.5817 39.7283 36.6289 39.6095C36.6769 39.4898 36.6944 39.3527 36.6743 39.2103V39.2112ZM18.4122 37.6241L18.3982 37.5612L18.3816 37.4861L18.3659 37.4109L18.3502 37.3349L18.3353 37.2589L18.3205 37.183L18.3065 37.107L18.2925 37.031L18.2794 36.9541L17.5902 37.0711L17.6042 37.1515L17.6182 37.2319L17.633 37.3122L17.6479 37.3917L17.6636 37.4712L17.6793 37.5507L17.6959 37.6302L17.7125 37.7097L17.7265 37.7726L18.4096 37.6241H18.4122ZM29.7396 47.9817L29.7152 47.9782L29.6409 47.9678L29.5667 47.9573L29.4924 47.9459L29.4182 47.9346L29.3439 47.9232L29.2697 47.911L29.1963 47.8988L29.1229 47.8857L29.0662 47.8752L28.9395 48.5626L28.9998 48.574L29.0775 48.5879L29.1553 48.601L29.233 48.6141L29.3107 48.6264L29.3885 48.6386L29.4662 48.6499L29.5448 48.6613L29.6234 48.6718L29.6479 48.6753L29.7396 47.9826V47.9817ZM27.0947 47.3555L27.0484 47.3397L26.9794 47.3153L26.9104 47.2899L26.8414 47.2646L26.7724 47.2393L26.7034 47.2131L26.6352 47.1869L26.5671 47.1598L26.499 47.1327L26.457 47.1161L26.1924 47.7634L26.2378 47.7817L26.3094 47.8105L26.381 47.8385L26.4535 47.8664L26.526 47.8935L26.5985 47.9206L26.671 47.9477L26.7435 47.9739L26.8169 48.0001L26.8632 48.0158L27.0956 47.3563L27.0947 47.3555ZM24.6297 46.2051L24.6026 46.1885L24.5406 46.1509L24.4786 46.1125L24.4166 46.0741L24.3545 46.0356L24.2934 45.9963L24.2323 45.957L24.1711 45.9177L24.11 45.8775L24.0541 45.8408L23.6654 46.4217L23.7239 46.461L23.7877 46.5029L23.8523 46.5449L23.9169 46.5859L23.9816 46.627L24.0462 46.668L24.1117 46.7082L24.1772 46.7484L24.2427 46.7877L24.2698 46.8043L24.6297 46.2051ZM22.446 44.5822L22.3918 44.5324L22.3385 44.4826L22.2852 44.4328L22.232 44.383L22.1796 44.3324L22.1271 44.2817L22.0747 44.231L22.0232 44.1795L21.9717 44.128L21.9559 44.1114L21.4572 44.6014L21.4764 44.6206L21.5305 44.6748L21.5847 44.7289L21.6397 44.7822L21.6948 44.8355L21.7498 44.8888L21.8057 44.9412L21.8616 44.9936L21.9175 45.046L21.9752 45.0984L22.4468 44.5822H22.446ZM20.6343 42.5557L20.6029 42.512L20.5601 42.4526L20.5173 42.3924L20.4754 42.3321L20.4334 42.2718L20.3924 42.2116L20.3513 42.1504L20.3103 42.0893L20.2701 42.0281L20.2483 41.9941L19.6613 42.374L19.6857 42.4116L19.7285 42.4762L19.7713 42.5409L19.815 42.6046L19.8587 42.6684L19.9024 42.7321L19.9469 42.795L19.9915 42.8579L20.036 42.9208L20.0675 42.9645L20.6343 42.5566V42.5557ZM19.27 40.2043L19.2437 40.1458L19.2132 40.0777L19.1835 40.0095L19.1538 39.9405L19.125 39.8715L19.0961 39.8025L19.0682 39.7335L19.0402 39.6636L19.0123 39.5937L19.0053 39.5763L18.3537 39.8278L18.3615 39.8488L18.3903 39.9222L18.42 39.9955L18.4497 40.0689L18.4803 40.1414L18.5109 40.2139L18.5415 40.2864L18.5729 40.3589L18.6044 40.4305L18.6306 40.4891L19.2691 40.2052L19.27 40.2043ZM32.416 48.76C32.223 48.76 32.0666 48.6037 32.0666 48.4106C32.0666 48.2219 32.216 48.0682 32.4038 48.0612C36.0882 47.7739 39.3079 46.0225 41.537 43.4213C43.7688 40.8175 45.0074 37.3611 44.7226 33.6698C44.6274 32.4304 44.3662 31.2442 43.9644 30.1323C43.5478 28.9819 42.98 27.9084 42.2865 26.9345C42.1747 26.7781 42.2113 26.5597 42.3686 26.4488C42.5249 26.337 42.7433 26.3737 42.8542 26.5309C43.5845 27.5555 44.1819 28.6849 44.6196 29.8955C45.0423 31.0634 45.3157 32.3046 45.4171 33.6C45.4188 33.6122 45.4197 33.6244 45.4197 33.6366C45.7132 37.5105 44.4108 41.1389 42.0663 43.8755C39.7219 46.6113 36.3362 48.4534 32.4623 48.7574C32.4474 48.7591 32.4317 48.7609 32.416 48.7609V48.76ZM37.7443 25.7526L38.2527 26.2322L37.7731 26.7405L37.2648 26.261L37.7443 25.7526ZM43.5024 19.6567L44.0107 20.1362L43.5312 20.6446L43.0228 20.165L43.5024 19.6567ZM41.5833 21.6884L42.0917 22.1679L41.6121 22.6763L41.1038 22.1967L41.5833 21.6884ZM39.6642 23.7201L40.1726 24.1996L39.6931 24.708L39.1847 24.2284L39.6642 23.7201Z"/>
</mask>
<path d="M22.9019 12.1675C23.0338 12.0268 23.2548 12.0207 23.3946 12.1526C23.5352 12.2845 23.5413 12.5055 23.4094 12.6453L16.2643 20.2279C16.259 20.2332 16.2538 20.2393 16.2477 20.2445C15.9909 20.4969 15.7227 20.6315 15.4388 20.6393C15.1462 20.6472 14.8667 20.5223 14.6003 20.2532L9.77946 15.3941C9.77073 15.3854 9.76287 15.3766 9.75588 15.3679L9.75501 15.3688C9.53925 15.1024 9.42046 14.8159 9.38115 14.5355C9.34359 14.2708 9.37941 14.0123 9.47112 13.7817C9.56371 13.5484 9.71308 13.3449 9.90263 13.1921C10.0939 13.0375 10.328 12.9309 10.5883 12.8942C10.8827 12.8532 11.1194 12.8863 11.3352 12.9807C11.5404 13.0706 11.709 13.2078 11.8846 13.3851L15.0929 16.6196C15.217 16.7445 15.3244 16.803 15.4179 16.8004C15.5157 16.7978 15.6284 16.7314 15.7559 16.6065L22.8993 9.02558C23.0312 8.88495 23.2522 8.87884 23.392 9.01073C23.5326 9.14263 23.5387 9.36362 23.4068 9.50337L16.2616 17.086L16.2538 17.0948C15.9952 17.3524 15.7236 17.4896 15.4371 17.4974C15.1445 17.5053 14.8649 17.3804 14.5985 17.1113L11.3902 13.8769C11.2714 13.7572 11.1657 13.6672 11.0565 13.6201C10.9587 13.5773 10.8416 13.5633 10.6835 13.5851C10.5551 13.6035 10.439 13.6568 10.3411 13.7354C10.2415 13.8157 10.1638 13.9205 10.1166 14.0385C10.0686 14.159 10.0502 14.297 10.0703 14.4403C10.0922 14.5966 10.1621 14.7617 10.2913 14.9233L15.092 19.7623C15.2161 19.8873 15.3235 19.9458 15.417 19.9432C15.5148 19.9405 15.6275 19.8742 15.755 19.7492L22.8984 12.1683L22.9019 12.1675ZM7.26643 23.9926L6.75806 23.5131L7.2376 23.0047L7.74598 23.4842L7.26643 23.9926ZM1.50837 30.0886L1 29.609L1.47955 29.1007L1.98792 29.5802L1.50837 30.0886ZM3.42743 28.0569L2.91906 27.5773L3.39861 27.069L3.90698 27.5485L3.42743 28.0569ZM5.34649 26.0252L4.83812 25.5456L5.31767 25.0373L5.82604 25.5168L5.34649 26.0252ZM29.516 12.1745L29.53 12.2374L29.5466 12.3125L29.5623 12.3876L29.578 12.4636L29.5929 12.5396L29.6077 12.6156L29.6217 12.6916L29.6357 12.7676L29.6488 12.8444L30.338 12.7274L30.324 12.647L30.31 12.5667L30.2952 12.4863L30.2803 12.4068L30.2646 12.3273L30.2489 12.2478L30.2323 12.1683L30.2157 12.0889L30.2017 12.026L29.5186 12.1745H29.516ZM18.1886 1.81678L18.213 1.82028L18.2873 1.83076L18.3615 1.84124L18.4358 1.85259L18.51 1.86395L18.5843 1.87531L18.6576 1.88753L18.731 1.89976L18.8044 1.91286L18.8612 1.92335L18.9878 1.23592L18.9275 1.22457L18.8498 1.21059L18.7721 1.19749L18.6943 1.18439L18.6166 1.17216L18.5388 1.15993L18.4611 1.14857L18.3834 1.13722L18.3047 1.12674L18.2803 1.12324L18.1886 1.81591V1.81678ZM20.8335 2.44306L20.8789 2.45879L20.9479 2.48324L21.0169 2.50858L21.0859 2.53391L21.1549 2.55924L21.224 2.58544L21.2921 2.61165L21.3602 2.63872L21.4284 2.6658L21.4703 2.6824L21.7349 2.03515L21.6895 2.01681L21.6179 1.98798L21.5463 1.96003L21.4738 1.93208L21.4013 1.905L21.3288 1.87793L21.2563 1.85085L21.1838 1.82464L21.1104 1.79844L21.065 1.78272L20.8326 2.44219L20.8335 2.44306ZM23.2985 3.59343L23.3256 3.61003L23.3876 3.64759L23.4496 3.68602L23.5116 3.72445L23.5736 3.76289L23.6348 3.80219L23.6959 3.8415L23.7571 3.88081L23.8182 3.92099L23.8741 3.95767L24.2628 3.37681L24.2043 3.3375L24.1405 3.29558L24.0759 3.25365L24.0113 3.2126L23.9466 3.17154L23.882 3.13049L23.8165 3.09031L23.751 3.05013L23.6855 3.01082L23.6584 2.99423L23.2985 3.59343ZM25.4822 5.21635L25.5364 5.26614L25.5897 5.31593L25.6429 5.36572L25.6962 5.4155L25.7486 5.46617L25.801 5.51683L25.8535 5.56749L25.905 5.61902L25.9565 5.67056L25.9723 5.68715L26.471 5.19713L26.4518 5.17792L26.3976 5.12376L26.3435 5.06961L26.2885 5.01632L26.2334 4.96304L26.1784 4.90976L26.1225 4.85735L26.0666 4.80494L26.0107 4.75254L25.953 4.70013L25.4814 5.21635H25.4822ZM27.2938 7.24282L27.3253 7.28649L27.3681 7.34589L27.4109 7.40616L27.4528 7.46643L27.4947 7.5267L27.5358 7.58697L27.5769 7.64811L27.6179 7.70925L27.6581 7.7704L27.6799 7.80446L28.2669 7.4245L28.2425 7.38694L28.1997 7.3223L28.1569 7.25766L28.1132 7.1939L28.0695 7.13014L28.0258 7.06637L27.9813 7.00348L27.9367 6.94059L27.8922 6.8777L27.8607 6.83403L27.2938 7.24194V7.24282ZM28.6582 9.59421L28.6844 9.65274L28.715 9.72087L28.7447 9.789L28.7744 9.858L28.8032 9.92701L28.8321 9.99601L28.86 10.065L28.888 10.1349L28.922 10.2222L29.5737 9.97068L29.5658 9.94972L29.537 9.87635L29.5073 9.80297L29.4776 9.7296L29.447 9.6571L29.4164 9.58461L29.3859 9.51211L29.3544 9.43961L29.323 9.36798L29.2968 9.30946L28.6582 9.59334V9.59421ZM9.30167 27.1458C9.16103 27.0148 9.15317 26.7938 9.2842 26.6532C9.41522 26.5126 9.63621 26.5047 9.77684 26.6357C9.85284 26.7065 10.0712 26.8296 10.2905 26.9449C10.5246 27.0681 10.756 27.1782 10.8408 27.2183C11.8767 27.7092 12.9817 28.07 14.1329 28.2822C15.2484 28.4875 16.4101 28.553 17.5981 28.4613C17.9999 28.4307 18.3965 28.3818 18.7869 28.3172C19.2979 27.3135 19.9259 26.3763 20.6544 25.5264C22.6731 23.1715 25.463 21.4779 28.6722 20.8586C29.6479 18.8129 30.117 16.4921 29.93 14.0699C29.9161 13.8777 30.0602 13.71 30.2524 13.6961C30.4445 13.6821 30.6122 13.8262 30.6262 14.0184C30.8097 16.396 30.3912 18.681 29.4994 20.7249C29.7571 20.6909 30.0165 20.6638 30.2777 20.6437C31.5224 20.5476 32.7436 20.6175 33.9202 20.8341C35.1343 21.0577 36.2969 21.4368 37.3844 21.9522C37.4726 21.9941 37.7146 22.1094 37.9618 22.2387C38.2238 22.3767 38.4955 22.533 38.6248 22.6544C38.7654 22.7854 38.7733 23.0064 38.6423 23.1471C38.5112 23.2877 38.2902 23.2956 38.1496 23.1645C38.0736 23.0938 37.8552 22.9706 37.636 22.8553C37.4019 22.7322 37.1704 22.6221 37.0857 22.5819C36.0497 22.091 34.9448 21.7303 33.7935 21.518C32.678 21.3128 31.5163 21.2473 30.3284 21.339C29.9266 21.3695 29.53 21.4185 29.1395 21.4831C28.6285 22.4867 28.0005 23.424 27.272 24.2739C25.2534 26.6287 22.4634 28.3224 19.2542 28.9417C18.2785 30.9874 17.8095 33.3082 17.9964 35.7304C18.0104 35.9225 17.8663 36.0902 17.6741 36.1042C17.4819 36.1182 17.3142 35.9741 17.3002 35.7819C17.1168 33.4043 17.5352 31.1193 18.427 29.0754C18.1694 29.1094 17.9099 29.1365 17.6488 29.1566C16.404 29.2527 15.1829 29.1828 14.0063 28.9662C12.7921 28.7426 11.6295 28.3635 10.542 27.8481C10.4538 27.8062 10.2118 27.6909 9.96465 27.5616C9.7026 27.4236 9.43094 27.2673 9.30167 27.1458ZM19.6726 28.1372C22.4923 27.4699 24.9415 25.9221 26.7435 23.8196C27.3157 23.1523 27.8214 22.4291 28.2538 21.6604C25.4342 22.3277 22.9849 23.8755 21.1829 25.978C20.6108 26.6453 20.105 27.3686 19.6726 28.1372ZM15.486 1.03939C15.6782 1.02541 15.8459 1.16954 15.8598 1.3617C15.8738 1.55387 15.7297 1.72157 15.5375 1.73555C11.8479 2.01943 8.62209 3.7725 6.39032 6.37633C4.15855 8.98016 2.91993 12.4365 3.20469 16.1278C3.2999 17.3673 3.56108 18.5535 3.96288 19.6654C4.37954 20.8158 4.94731 21.8893 5.64086 22.8632C5.75267 23.0195 5.71598 23.2379 5.55875 23.3488C5.4024 23.4606 5.18403 23.424 5.07309 23.2667C4.34285 22.2421 3.74538 21.1127 3.30777 19.9021C2.88325 18.729 2.60897 17.4808 2.50852 16.1785C2.20979 12.2976 3.51304 8.66221 5.86098 5.92212C8.2098 3.18203 11.6033 1.33724 15.4851 1.03851L15.486 1.03939ZM10.1839 24.0459L9.67552 23.5663L10.1551 23.058L10.6634 23.5375L10.1839 24.0459ZM4.42583 30.1419L3.91746 29.6623L4.39701 29.154L4.90538 29.6335L4.42583 30.1419ZM6.3449 28.1102L5.83652 27.6306L6.31607 27.1223L6.82444 27.6018L6.3449 28.1102ZM8.26396 26.0785L7.75558 25.5989L8.23513 25.0906L8.7435 25.5701L8.26396 26.0785ZM40.6609 25.8059L41.1693 26.2855L40.6897 26.7938L40.1813 26.3143L40.6609 25.8059ZM46.4189 19.7099L46.9273 20.1895L46.4478 20.6978L45.9394 20.2183L46.4189 19.7099ZM44.4999 21.7416L45.0083 22.2212L44.5287 22.7295L44.0203 22.25L44.4999 21.7416ZM42.5808 23.7734L43.0892 24.2529L42.6097 24.7613L42.1013 24.2817L42.5808 23.7734ZM36.9931 38.2862C37.208 38.5534 37.3259 38.8382 37.3652 39.116C37.4019 39.3797 37.367 39.6374 37.2761 39.8671C37.1844 40.0977 37.0359 40.3004 36.8464 40.4541C36.6533 40.6105 36.4192 40.7179 36.1589 40.7546C35.8645 40.7957 35.6278 40.7625 35.4121 40.6681C35.2068 40.5782 35.0382 40.441 34.8627 40.2637L31.6543 37.0292C31.5303 36.9043 31.4228 36.8458 31.3294 36.8484C31.2298 36.851 31.1154 36.92 30.9852 37.0493L27.7673 40.282C27.7585 40.2908 27.7489 40.2995 27.7393 40.3074L27.7402 40.3083C27.4589 40.5354 27.1611 40.6594 26.8711 40.7004C26.6029 40.738 26.3452 40.7039 26.1164 40.6131C25.8849 40.5214 25.6831 40.3729 25.5294 40.1833C25.3748 39.9929 25.27 39.7597 25.2333 39.5003C25.1922 39.2059 25.2254 38.9692 25.3198 38.7535C25.4097 38.5482 25.5469 38.3796 25.7242 38.204L28.9587 34.9958C29.0836 34.8717 29.1422 34.7643 29.1395 34.6708C29.1369 34.5713 29.0679 34.4568 28.9386 34.3267L25.7364 31.1394C25.7268 31.1298 25.7189 31.1202 25.7102 31.1105C25.4962 30.8433 25.3783 30.5585 25.3398 30.2807C25.3023 30.0135 25.3381 29.7532 25.4307 29.5217C25.5242 29.2894 25.6753 29.085 25.8674 28.9312C26.0587 28.7775 26.2911 28.6727 26.5488 28.6369C26.8431 28.5958 27.0798 28.629 27.2956 28.7233C27.5009 28.8133 27.6694 28.9504 27.845 29.1278L31.0534 32.3622C31.1774 32.4871 31.2848 32.5457 31.3783 32.543C31.4779 32.5404 31.5923 32.4714 31.7224 32.343L34.9317 29.1103C34.9404 29.1016 34.9491 29.0937 34.9579 29.0867L34.957 29.0858C35.2365 28.8579 35.5344 28.7329 35.8235 28.6928C36.0882 28.6552 36.3441 28.6893 36.5712 28.7792C36.8018 28.8701 37.0027 29.0168 37.1556 29.2038C37.3128 29.3959 37.4194 29.6309 37.456 29.8929C37.4971 30.1873 37.4639 30.424 37.3696 30.6397C37.2796 30.845 37.1425 31.0136 36.9651 31.1892L33.7306 34.3974C33.6057 34.5215 33.5472 34.6289 33.5498 34.7224C33.5524 34.8219 33.6214 34.9364 33.7498 35.0665L36.9608 38.2538C36.9721 38.2652 36.9826 38.2765 36.9922 38.2888L36.9931 38.2862ZM36.6743 39.2112C36.6524 39.0548 36.5834 38.8915 36.4576 38.7316L33.258 35.5548C33.0004 35.2962 32.8632 35.0246 32.8554 34.7381C32.8475 34.4455 32.9724 34.166 33.2415 33.8996L36.476 30.6913C36.5957 30.5725 36.6856 30.4668 36.7328 30.3576C36.7756 30.2598 36.7896 30.1427 36.7677 29.9846C36.7494 29.8562 36.6961 29.7392 36.6166 29.6422C36.538 29.5462 36.4358 29.471 36.3188 29.4256C36.1982 29.3784 36.0628 29.3601 35.9205 29.3802C35.7562 29.4029 35.5815 29.478 35.4086 29.6169L32.2151 32.8339C31.9565 33.0916 31.6849 33.2287 31.3984 33.2366C31.1058 33.2445 30.8262 33.1195 30.5598 32.8505L27.3515 29.616C27.2327 29.4964 27.127 29.4064 27.0178 29.3592C26.92 29.3164 26.8021 29.3025 26.6448 29.3243C26.5164 29.3426 26.4003 29.395 26.3051 29.4719C26.2055 29.5514 26.1269 29.658 26.0788 29.7785C26.0299 29.9008 26.0116 30.0388 26.0317 30.1829C26.0535 30.3375 26.1207 30.5 26.2439 30.6581L29.433 33.8323C29.6907 34.0908 29.8278 34.3625 29.8357 34.649C29.8436 34.9416 29.7187 35.2211 29.4496 35.4875L26.2151 38.6958C26.0954 38.8146 26.0054 38.9203 25.9583 39.0295C25.9155 39.1273 25.9015 39.2444 25.9233 39.4025C25.9408 39.5291 25.9941 39.6453 26.0718 39.7414C26.1496 39.8374 26.2535 39.9134 26.3723 39.9606C26.4937 40.0086 26.6317 40.027 26.775 40.0069C26.941 39.9833 27.1174 39.9082 27.293 39.7684L30.4934 36.5532C30.752 36.2955 31.0237 36.1584 31.3102 36.1505C31.6028 36.1426 31.8823 36.2676 32.1487 36.5366L35.357 39.7711C35.4758 39.8907 35.5815 39.9807 35.6907 40.0279C35.7886 40.0707 35.9056 40.0846 36.0637 40.0628C36.1939 40.0445 36.3109 39.9912 36.407 39.9126C36.5048 39.8331 36.5817 39.7283 36.6289 39.6095C36.6769 39.4898 36.6944 39.3527 36.6743 39.2103V39.2112ZM18.4122 37.6241L18.3982 37.5612L18.3816 37.4861L18.3659 37.4109L18.3502 37.3349L18.3353 37.2589L18.3205 37.183L18.3065 37.107L18.2925 37.031L18.2794 36.9541L17.5902 37.0711L17.6042 37.1515L17.6182 37.2319L17.633 37.3122L17.6479 37.3917L17.6636 37.4712L17.6793 37.5507L17.6959 37.6302L17.7125 37.7097L17.7265 37.7726L18.4096 37.6241H18.4122ZM29.7396 47.9817L29.7152 47.9782L29.6409 47.9678L29.5667 47.9573L29.4924 47.9459L29.4182 47.9346L29.3439 47.9232L29.2697 47.911L29.1963 47.8988L29.1229 47.8857L29.0662 47.8752L28.9395 48.5626L28.9998 48.574L29.0775 48.5879L29.1553 48.601L29.233 48.6141L29.3107 48.6264L29.3885 48.6386L29.4662 48.6499L29.5448 48.6613L29.6234 48.6718L29.6479 48.6753L29.7396 47.9826V47.9817ZM27.0947 47.3555L27.0484 47.3397L26.9794 47.3153L26.9104 47.2899L26.8414 47.2646L26.7724 47.2393L26.7034 47.2131L26.6352 47.1869L26.5671 47.1598L26.499 47.1327L26.457 47.1161L26.1924 47.7634L26.2378 47.7817L26.3094 47.8105L26.381 47.8385L26.4535 47.8664L26.526 47.8935L26.5985 47.9206L26.671 47.9477L26.7435 47.9739L26.8169 48.0001L26.8632 48.0158L27.0956 47.3563L27.0947 47.3555ZM24.6297 46.2051L24.6026 46.1885L24.5406 46.1509L24.4786 46.1125L24.4166 46.0741L24.3545 46.0356L24.2934 45.9963L24.2323 45.957L24.1711 45.9177L24.11 45.8775L24.0541 45.8408L23.6654 46.4217L23.7239 46.461L23.7877 46.5029L23.8523 46.5449L23.9169 46.5859L23.9816 46.627L24.0462 46.668L24.1117 46.7082L24.1772 46.7484L24.2427 46.7877L24.2698 46.8043L24.6297 46.2051ZM22.446 44.5822L22.3918 44.5324L22.3385 44.4826L22.2852 44.4328L22.232 44.383L22.1796 44.3324L22.1271 44.2817L22.0747 44.231L22.0232 44.1795L21.9717 44.128L21.9559 44.1114L21.4572 44.6014L21.4764 44.6206L21.5305 44.6748L21.5847 44.7289L21.6397 44.7822L21.6948 44.8355L21.7498 44.8888L21.8057 44.9412L21.8616 44.9936L21.9175 45.046L21.9752 45.0984L22.4468 44.5822H22.446ZM20.6343 42.5557L20.6029 42.512L20.5601 42.4526L20.5173 42.3924L20.4754 42.3321L20.4334 42.2718L20.3924 42.2116L20.3513 42.1504L20.3103 42.0893L20.2701 42.0281L20.2483 41.9941L19.6613 42.374L19.6857 42.4116L19.7285 42.4762L19.7713 42.5409L19.815 42.6046L19.8587 42.6684L19.9024 42.7321L19.9469 42.795L19.9915 42.8579L20.036 42.9208L20.0675 42.9645L20.6343 42.5566V42.5557ZM19.27 40.2043L19.2437 40.1458L19.2132 40.0777L19.1835 40.0095L19.1538 39.9405L19.125 39.8715L19.0961 39.8025L19.0682 39.7335L19.0402 39.6636L19.0123 39.5937L19.0053 39.5763L18.3537 39.8278L18.3615 39.8488L18.3903 39.9222L18.42 39.9955L18.4497 40.0689L18.4803 40.1414L18.5109 40.2139L18.5415 40.2864L18.5729 40.3589L18.6044 40.4305L18.6306 40.4891L19.2691 40.2052L19.27 40.2043ZM32.416 48.76C32.223 48.76 32.0666 48.6037 32.0666 48.4106C32.0666 48.2219 32.216 48.0682 32.4038 48.0612C36.0882 47.7739 39.3079 46.0225 41.537 43.4213C43.7688 40.8175 45.0074 37.3611 44.7226 33.6698C44.6274 32.4304 44.3662 31.2442 43.9644 30.1323C43.5478 28.9819 42.98 27.9084 42.2865 26.9345C42.1747 26.7781 42.2113 26.5597 42.3686 26.4488C42.5249 26.337 42.7433 26.3737 42.8542 26.5309C43.5845 27.5555 44.1819 28.6849 44.6196 29.8955C45.0423 31.0634 45.3157 32.3046 45.4171 33.6C45.4188 33.6122 45.4197 33.6244 45.4197 33.6366C45.7132 37.5105 44.4108 41.1389 42.0663 43.8755C39.7219 46.6113 36.3362 48.4534 32.4623 48.7574C32.4474 48.7591 32.4317 48.7609 32.416 48.7609V48.76ZM37.7443 25.7526L38.2527 26.2322L37.7731 26.7405L37.2648 26.261L37.7443 25.7526ZM43.5024 19.6567L44.0107 20.1362L43.5312 20.6446L43.0228 20.165L43.5024 19.6567ZM41.5833 21.6884L42.0917 22.1679L41.6121 22.6763L41.1038 22.1967L41.5833 21.6884ZM39.6642 23.7201L40.1726 24.1996L39.6931 24.708L39.1847 24.2284L39.6642 23.7201Z" fill="#05778F"/>
<path d="M22.9019 12.1675C23.0338 12.0268 23.2548 12.0207 23.3946 12.1526C23.5352 12.2845 23.5413 12.5055 23.4094 12.6453L16.2643 20.2279C16.259 20.2332 16.2538 20.2393 16.2477 20.2445C15.9909 20.4969 15.7227 20.6315 15.4388 20.6393C15.1462 20.6472 14.8667 20.5223 14.6003 20.2532L9.77946 15.3941C9.77073 15.3854 9.76287 15.3766 9.75588 15.3679L9.75501 15.3688C9.53925 15.1024 9.42046 14.8159 9.38115 14.5355C9.34359 14.2708 9.37941 14.0123 9.47112 13.7817C9.56371 13.5484 9.71308 13.3449 9.90263 13.1921C10.0939 13.0375 10.328 12.9309 10.5883 12.8942C10.8827 12.8532 11.1194 12.8863 11.3352 12.9807C11.5404 13.0706 11.709 13.2078 11.8846 13.3851L15.0929 16.6196C15.217 16.7445 15.3244 16.803 15.4179 16.8004C15.5157 16.7978 15.6284 16.7314 15.7559 16.6065L22.8993 9.02558C23.0312 8.88495 23.2522 8.87884 23.392 9.01073C23.5326 9.14263 23.5387 9.36362 23.4068 9.50337L16.2616 17.086L16.2538 17.0948C15.9952 17.3524 15.7236 17.4896 15.4371 17.4974C15.1445 17.5053 14.8649 17.3804 14.5985 17.1113L11.3902 13.8769C11.2714 13.7572 11.1657 13.6672 11.0565 13.6201C10.9587 13.5773 10.8416 13.5633 10.6835 13.5851C10.5551 13.6035 10.439 13.6568 10.3411 13.7354C10.2415 13.8157 10.1638 13.9205 10.1166 14.0385C10.0686 14.159 10.0502 14.297 10.0703 14.4403C10.0922 14.5966 10.1621 14.7617 10.2913 14.9233L15.092 19.7623C15.2161 19.8873 15.3235 19.9458 15.417 19.9432C15.5148 19.9405 15.6275 19.8742 15.755 19.7492L22.8984 12.1683L22.9019 12.1675ZM7.26643 23.9926L6.75806 23.5131L7.2376 23.0047L7.74598 23.4842L7.26643 23.9926ZM1.50837 30.0886L1 29.609L1.47955 29.1007L1.98792 29.5802L1.50837 30.0886ZM3.42743 28.0569L2.91906 27.5773L3.39861 27.069L3.90698 27.5485L3.42743 28.0569ZM5.34649 26.0252L4.83812 25.5456L5.31767 25.0373L5.82604 25.5168L5.34649 26.0252ZM29.516 12.1745L29.53 12.2374L29.5466 12.3125L29.5623 12.3876L29.578 12.4636L29.5929 12.5396L29.6077 12.6156L29.6217 12.6916L29.6357 12.7676L29.6488 12.8444L30.338 12.7274L30.324 12.647L30.31 12.5667L30.2952 12.4863L30.2803 12.4068L30.2646 12.3273L30.2489 12.2478L30.2323 12.1683L30.2157 12.0889L30.2017 12.026L29.5186 12.1745H29.516ZM18.1886 1.81678L18.213 1.82028L18.2873 1.83076L18.3615 1.84124L18.4358 1.85259L18.51 1.86395L18.5843 1.87531L18.6576 1.88753L18.731 1.89976L18.8044 1.91286L18.8612 1.92335L18.9878 1.23592L18.9275 1.22457L18.8498 1.21059L18.7721 1.19749L18.6943 1.18439L18.6166 1.17216L18.5388 1.15993L18.4611 1.14857L18.3834 1.13722L18.3047 1.12674L18.2803 1.12324L18.1886 1.81591V1.81678ZM20.8335 2.44306L20.8789 2.45879L20.9479 2.48324L21.0169 2.50858L21.0859 2.53391L21.1549 2.55924L21.224 2.58544L21.2921 2.61165L21.3602 2.63872L21.4284 2.6658L21.4703 2.6824L21.7349 2.03515L21.6895 2.01681L21.6179 1.98798L21.5463 1.96003L21.4738 1.93208L21.4013 1.905L21.3288 1.87793L21.2563 1.85085L21.1838 1.82464L21.1104 1.79844L21.065 1.78272L20.8326 2.44219L20.8335 2.44306ZM23.2985 3.59343L23.3256 3.61003L23.3876 3.64759L23.4496 3.68602L23.5116 3.72445L23.5736 3.76289L23.6348 3.80219L23.6959 3.8415L23.7571 3.88081L23.8182 3.92099L23.8741 3.95767L24.2628 3.37681L24.2043 3.3375L24.1405 3.29558L24.0759 3.25365L24.0113 3.2126L23.9466 3.17154L23.882 3.13049L23.8165 3.09031L23.751 3.05013L23.6855 3.01082L23.6584 2.99423L23.2985 3.59343ZM25.4822 5.21635L25.5364 5.26614L25.5897 5.31593L25.6429 5.36572L25.6962 5.4155L25.7486 5.46617L25.801 5.51683L25.8535 5.56749L25.905 5.61902L25.9565 5.67056L25.9723 5.68715L26.471 5.19713L26.4518 5.17792L26.3976 5.12376L26.3435 5.06961L26.2885 5.01632L26.2334 4.96304L26.1784 4.90976L26.1225 4.85735L26.0666 4.80494L26.0107 4.75254L25.953 4.70013L25.4814 5.21635H25.4822ZM27.2938 7.24282L27.3253 7.28649L27.3681 7.34589L27.4109 7.40616L27.4528 7.46643L27.4947 7.5267L27.5358 7.58697L27.5769 7.64811L27.6179 7.70925L27.6581 7.7704L27.6799 7.80446L28.2669 7.4245L28.2425 7.38694L28.1997 7.3223L28.1569 7.25766L28.1132 7.1939L28.0695 7.13014L28.0258 7.06637L27.9813 7.00348L27.9367 6.94059L27.8922 6.8777L27.8607 6.83403L27.2938 7.24194V7.24282ZM28.6582 9.59421L28.6844 9.65274L28.715 9.72087L28.7447 9.789L28.7744 9.858L28.8032 9.92701L28.8321 9.99601L28.86 10.065L28.888 10.1349L28.922 10.2222L29.5737 9.97068L29.5658 9.94972L29.537 9.87635L29.5073 9.80297L29.4776 9.7296L29.447 9.6571L29.4164 9.58461L29.3859 9.51211L29.3544 9.43961L29.323 9.36798L29.2968 9.30946L28.6582 9.59334V9.59421ZM9.30167 27.1458C9.16103 27.0148 9.15317 26.7938 9.2842 26.6532C9.41522 26.5126 9.63621 26.5047 9.77684 26.6357C9.85284 26.7065 10.0712 26.8296 10.2905 26.9449C10.5246 27.0681 10.756 27.1782 10.8408 27.2183C11.8767 27.7092 12.9817 28.07 14.1329 28.2822C15.2484 28.4875 16.4101 28.553 17.5981 28.4613C17.9999 28.4307 18.3965 28.3818 18.7869 28.3172C19.2979 27.3135 19.9259 26.3763 20.6544 25.5264C22.6731 23.1715 25.463 21.4779 28.6722 20.8586C29.6479 18.8129 30.117 16.4921 29.93 14.0699C29.9161 13.8777 30.0602 13.71 30.2524 13.6961C30.4445 13.6821 30.6122 13.8262 30.6262 14.0184C30.8097 16.396 30.3912 18.681 29.4994 20.7249C29.7571 20.6909 30.0165 20.6638 30.2777 20.6437C31.5224 20.5476 32.7436 20.6175 33.9202 20.8341C35.1343 21.0577 36.2969 21.4368 37.3844 21.9522C37.4726 21.9941 37.7146 22.1094 37.9618 22.2387C38.2238 22.3767 38.4955 22.533 38.6248 22.6544C38.7654 22.7854 38.7733 23.0064 38.6423 23.1471C38.5112 23.2877 38.2902 23.2956 38.1496 23.1645C38.0736 23.0938 37.8552 22.9706 37.636 22.8553C37.4019 22.7322 37.1704 22.6221 37.0857 22.5819C36.0497 22.091 34.9448 21.7303 33.7935 21.518C32.678 21.3128 31.5163 21.2473 30.3284 21.339C29.9266 21.3695 29.53 21.4185 29.1395 21.4831C28.6285 22.4867 28.0005 23.424 27.272 24.2739C25.2534 26.6287 22.4634 28.3224 19.2542 28.9417C18.2785 30.9874 17.8095 33.3082 17.9964 35.7304C18.0104 35.9225 17.8663 36.0902 17.6741 36.1042C17.4819 36.1182 17.3142 35.9741 17.3002 35.7819C17.1168 33.4043 17.5352 31.1193 18.427 29.0754C18.1694 29.1094 17.9099 29.1365 17.6488 29.1566C16.404 29.2527 15.1829 29.1828 14.0063 28.9662C12.7921 28.7426 11.6295 28.3635 10.542 27.8481C10.4538 27.8062 10.2118 27.6909 9.96465 27.5616C9.7026 27.4236 9.43094 27.2673 9.30167 27.1458ZM19.6726 28.1372C22.4923 27.4699 24.9415 25.9221 26.7435 23.8196C27.3157 23.1523 27.8214 22.4291 28.2538 21.6604C25.4342 22.3277 22.9849 23.8755 21.1829 25.978C20.6108 26.6453 20.105 27.3686 19.6726 28.1372ZM15.486 1.03939C15.6782 1.02541 15.8459 1.16954 15.8598 1.3617C15.8738 1.55387 15.7297 1.72157 15.5375 1.73555C11.8479 2.01943 8.62209 3.7725 6.39032 6.37633C4.15855 8.98016 2.91993 12.4365 3.20469 16.1278C3.2999 17.3673 3.56108 18.5535 3.96288 19.6654C4.37954 20.8158 4.94731 21.8893 5.64086 22.8632C5.75267 23.0195 5.71598 23.2379 5.55875 23.3488C5.4024 23.4606 5.18403 23.424 5.07309 23.2667C4.34285 22.2421 3.74538 21.1127 3.30777 19.9021C2.88325 18.729 2.60897 17.4808 2.50852 16.1785C2.20979 12.2976 3.51304 8.66221 5.86098 5.92212C8.2098 3.18203 11.6033 1.33724 15.4851 1.03851L15.486 1.03939ZM10.1839 24.0459L9.67552 23.5663L10.1551 23.058L10.6634 23.5375L10.1839 24.0459ZM4.42583 30.1419L3.91746 29.6623L4.39701 29.154L4.90538 29.6335L4.42583 30.1419ZM6.3449 28.1102L5.83652 27.6306L6.31607 27.1223L6.82444 27.6018L6.3449 28.1102ZM8.26396 26.0785L7.75558 25.5989L8.23513 25.0906L8.7435 25.5701L8.26396 26.0785ZM40.6609 25.8059L41.1693 26.2855L40.6897 26.7938L40.1813 26.3143L40.6609 25.8059ZM46.4189 19.7099L46.9273 20.1895L46.4478 20.6978L45.9394 20.2183L46.4189 19.7099ZM44.4999 21.7416L45.0083 22.2212L44.5287 22.7295L44.0203 22.25L44.4999 21.7416ZM42.5808 23.7734L43.0892 24.2529L42.6097 24.7613L42.1013 24.2817L42.5808 23.7734ZM36.9931 38.2862C37.208 38.5534 37.3259 38.8382 37.3652 39.116C37.4019 39.3797 37.367 39.6374 37.2761 39.8671C37.1844 40.0977 37.0359 40.3004 36.8464 40.4541C36.6533 40.6105 36.4192 40.7179 36.1589 40.7546C35.8645 40.7957 35.6278 40.7625 35.4121 40.6681C35.2068 40.5782 35.0382 40.441 34.8627 40.2637L31.6543 37.0292C31.5303 36.9043 31.4228 36.8458 31.3294 36.8484C31.2298 36.851 31.1154 36.92 30.9852 37.0493L27.7673 40.282C27.7585 40.2908 27.7489 40.2995 27.7393 40.3074L27.7402 40.3083C27.4589 40.5354 27.1611 40.6594 26.8711 40.7004C26.6029 40.738 26.3452 40.7039 26.1164 40.6131C25.8849 40.5214 25.6831 40.3729 25.5294 40.1833C25.3748 39.9929 25.27 39.7597 25.2333 39.5003C25.1922 39.2059 25.2254 38.9692 25.3198 38.7535C25.4097 38.5482 25.5469 38.3796 25.7242 38.204L28.9587 34.9958C29.0836 34.8717 29.1422 34.7643 29.1395 34.6708C29.1369 34.5713 29.0679 34.4568 28.9386 34.3267L25.7364 31.1394C25.7268 31.1298 25.7189 31.1202 25.7102 31.1105C25.4962 30.8433 25.3783 30.5585 25.3398 30.2807C25.3023 30.0135 25.3381 29.7532 25.4307 29.5217C25.5242 29.2894 25.6753 29.085 25.8674 28.9312C26.0587 28.7775 26.2911 28.6727 26.5488 28.6369C26.8431 28.5958 27.0798 28.629 27.2956 28.7233C27.5009 28.8133 27.6694 28.9504 27.845 29.1278L31.0534 32.3622C31.1774 32.4871 31.2848 32.5457 31.3783 32.543C31.4779 32.5404 31.5923 32.4714 31.7224 32.343L34.9317 29.1103C34.9404 29.1016 34.9491 29.0937 34.9579 29.0867L34.957 29.0858C35.2365 28.8579 35.5344 28.7329 35.8235 28.6928C36.0882 28.6552 36.3441 28.6893 36.5712 28.7792C36.8018 28.8701 37.0027 29.0168 37.1556 29.2038C37.3128 29.3959 37.4194 29.6309 37.456 29.8929C37.4971 30.1873 37.4639 30.424 37.3696 30.6397C37.2796 30.845 37.1425 31.0136 36.9651 31.1892L33.7306 34.3974C33.6057 34.5215 33.5472 34.6289 33.5498 34.7224C33.5524 34.8219 33.6214 34.9364 33.7498 35.0665L36.9608 38.2538C36.9721 38.2652 36.9826 38.2765 36.9922 38.2888L36.9931 38.2862ZM36.6743 39.2112C36.6524 39.0548 36.5834 38.8915 36.4576 38.7316L33.258 35.5548C33.0004 35.2962 32.8632 35.0246 32.8554 34.7381C32.8475 34.4455 32.9724 34.166 33.2415 33.8996L36.476 30.6913C36.5957 30.5725 36.6856 30.4668 36.7328 30.3576C36.7756 30.2598 36.7896 30.1427 36.7677 29.9846C36.7494 29.8562 36.6961 29.7392 36.6166 29.6422C36.538 29.5462 36.4358 29.471 36.3188 29.4256C36.1982 29.3784 36.0628 29.3601 35.9205 29.3802C35.7562 29.4029 35.5815 29.478 35.4086 29.6169L32.2151 32.8339C31.9565 33.0916 31.6849 33.2287 31.3984 33.2366C31.1058 33.2445 30.8262 33.1195 30.5598 32.8505L27.3515 29.616C27.2327 29.4964 27.127 29.4064 27.0178 29.3592C26.92 29.3164 26.8021 29.3025 26.6448 29.3243C26.5164 29.3426 26.4003 29.395 26.3051 29.4719C26.2055 29.5514 26.1269 29.658 26.0788 29.7785C26.0299 29.9008 26.0116 30.0388 26.0317 30.1829C26.0535 30.3375 26.1207 30.5 26.2439 30.6581L29.433 33.8323C29.6907 34.0908 29.8278 34.3625 29.8357 34.649C29.8436 34.9416 29.7187 35.2211 29.4496 35.4875L26.2151 38.6958C26.0954 38.8146 26.0054 38.9203 25.9583 39.0295C25.9155 39.1273 25.9015 39.2444 25.9233 39.4025C25.9408 39.5291 25.9941 39.6453 26.0718 39.7414C26.1496 39.8374 26.2535 39.9134 26.3723 39.9606C26.4937 40.0086 26.6317 40.027 26.775 40.0069C26.941 39.9833 27.1174 39.9082 27.293 39.7684L30.4934 36.5532C30.752 36.2955 31.0237 36.1584 31.3102 36.1505C31.6028 36.1426 31.8823 36.2676 32.1487 36.5366L35.357 39.7711C35.4758 39.8907 35.5815 39.9807 35.6907 40.0279C35.7886 40.0707 35.9056 40.0846 36.0637 40.0628C36.1939 40.0445 36.3109 39.9912 36.407 39.9126C36.5048 39.8331 36.5817 39.7283 36.6289 39.6095C36.6769 39.4898 36.6944 39.3527 36.6743 39.2103V39.2112ZM18.4122 37.6241L18.3982 37.5612L18.3816 37.4861L18.3659 37.4109L18.3502 37.3349L18.3353 37.2589L18.3205 37.183L18.3065 37.107L18.2925 37.031L18.2794 36.9541L17.5902 37.0711L17.6042 37.1515L17.6182 37.2319L17.633 37.3122L17.6479 37.3917L17.6636 37.4712L17.6793 37.5507L17.6959 37.6302L17.7125 37.7097L17.7265 37.7726L18.4096 37.6241H18.4122ZM29.7396 47.9817L29.7152 47.9782L29.6409 47.9678L29.5667 47.9573L29.4924 47.9459L29.4182 47.9346L29.3439 47.9232L29.2697 47.911L29.1963 47.8988L29.1229 47.8857L29.0662 47.8752L28.9395 48.5626L28.9998 48.574L29.0775 48.5879L29.1553 48.601L29.233 48.6141L29.3107 48.6264L29.3885 48.6386L29.4662 48.6499L29.5448 48.6613L29.6234 48.6718L29.6479 48.6753L29.7396 47.9826V47.9817ZM27.0947 47.3555L27.0484 47.3397L26.9794 47.3153L26.9104 47.2899L26.8414 47.2646L26.7724 47.2393L26.7034 47.2131L26.6352 47.1869L26.5671 47.1598L26.499 47.1327L26.457 47.1161L26.1924 47.7634L26.2378 47.7817L26.3094 47.8105L26.381 47.8385L26.4535 47.8664L26.526 47.8935L26.5985 47.9206L26.671 47.9477L26.7435 47.9739L26.8169 48.0001L26.8632 48.0158L27.0956 47.3563L27.0947 47.3555ZM24.6297 46.2051L24.6026 46.1885L24.5406 46.1509L24.4786 46.1125L24.4166 46.0741L24.3545 46.0356L24.2934 45.9963L24.2323 45.957L24.1711 45.9177L24.11 45.8775L24.0541 45.8408L23.6654 46.4217L23.7239 46.461L23.7877 46.5029L23.8523 46.5449L23.9169 46.5859L23.9816 46.627L24.0462 46.668L24.1117 46.7082L24.1772 46.7484L24.2427 46.7877L24.2698 46.8043L24.6297 46.2051ZM22.446 44.5822L22.3918 44.5324L22.3385 44.4826L22.2852 44.4328L22.232 44.383L22.1796 44.3324L22.1271 44.2817L22.0747 44.231L22.0232 44.1795L21.9717 44.128L21.9559 44.1114L21.4572 44.6014L21.4764 44.6206L21.5305 44.6748L21.5847 44.7289L21.6397 44.7822L21.6948 44.8355L21.7498 44.8888L21.8057 44.9412L21.8616 44.9936L21.9175 45.046L21.9752 45.0984L22.4468 44.5822H22.446ZM20.6343 42.5557L20.6029 42.512L20.5601 42.4526L20.5173 42.3924L20.4754 42.3321L20.4334 42.2718L20.3924 42.2116L20.3513 42.1504L20.3103 42.0893L20.2701 42.0281L20.2483 41.9941L19.6613 42.374L19.6857 42.4116L19.7285 42.4762L19.7713 42.5409L19.815 42.6046L19.8587 42.6684L19.9024 42.7321L19.9469 42.795L19.9915 42.8579L20.036 42.9208L20.0675 42.9645L20.6343 42.5566V42.5557ZM19.27 40.2043L19.2437 40.1458L19.2132 40.0777L19.1835 40.0095L19.1538 39.9405L19.125 39.8715L19.0961 39.8025L19.0682 39.7335L19.0402 39.6636L19.0123 39.5937L19.0053 39.5763L18.3537 39.8278L18.3615 39.8488L18.3903 39.9222L18.42 39.9955L18.4497 40.0689L18.4803 40.1414L18.5109 40.2139L18.5415 40.2864L18.5729 40.3589L18.6044 40.4305L18.6306 40.4891L19.2691 40.2052L19.27 40.2043ZM32.416 48.76C32.223 48.76 32.0666 48.6037 32.0666 48.4106C32.0666 48.2219 32.216 48.0682 32.4038 48.0612C36.0882 47.7739 39.3079 46.0225 41.537 43.4213C43.7688 40.8175 45.0074 37.3611 44.7226 33.6698C44.6274 32.4304 44.3662 31.2442 43.9644 30.1323C43.5478 28.9819 42.98 27.9084 42.2865 26.9345C42.1747 26.7781 42.2113 26.5597 42.3686 26.4488C42.5249 26.337 42.7433 26.3737 42.8542 26.5309C43.5845 27.5555 44.1819 28.6849 44.6196 29.8955C45.0423 31.0634 45.3157 32.3046 45.4171 33.6C45.4188 33.6122 45.4197 33.6244 45.4197 33.6366C45.7132 37.5105 44.4108 41.1389 42.0663 43.8755C39.7219 46.6113 36.3362 48.4534 32.4623 48.7574C32.4474 48.7591 32.4317 48.7609 32.416 48.7609V48.76ZM37.7443 25.7526L38.2527 26.2322L37.7731 26.7405L37.2648 26.261L37.7443 25.7526ZM43.5024 19.6567L44.0107 20.1362L43.5312 20.6446L43.0228 20.165L43.5024 19.6567ZM41.5833 21.6884L42.0917 22.1679L41.6121 22.6763L41.1038 22.1967L41.5833 21.6884ZM39.6642 23.7201L40.1726 24.1996L39.6931 24.708L39.1847 24.2284L39.6642 23.7201Z" stroke="#037396" stroke-width="0.8" mask="url(#path-1-outside-1)"/>
<path d="M41.5671 11.8248C38.5797 11.8248 36.1501 9.39519 36.1501 6.40783C36.1501 3.6607 38.2071 1.39027 40.8605 1.04217V0.0897217C37.6815 0.441591 35.208 3.13454 35.208 6.40735C35.208 9.91945 38.055 12.7664 41.5671 12.7664C44.8404 12.7664 47.5333 10.293 47.8847 7.11392H46.9328C46.5847 9.76778 44.3142 11.8248 41.5671 11.8248Z" fill="#05778F"/>
<path d="M46.0428 6.17286H42.2311C42.1605 5.97314 42.0031 5.81582 41.8034 5.74516V1.93347H41.3324V5.74516C41.0587 5.84267 40.8613 6.10127 40.8613 6.40839C40.8613 6.79841 41.1779 7.11495 41.5679 7.11495C41.875 7.11495 42.1336 6.91758 42.2311 6.64391H46.0428V6.17286Z" fill="#05778F"/>
<path d="M44.0677 1.60792L44.5406 0.78878C44.1921 0.60366 43.8242 0.448676 43.4403 0.330444L43.1963 1.24239C43.4996 1.33801 43.7898 1.46236 44.0677 1.60792Z" fill="#05778F"/>
<path d="M46.9722 6.17307H47.9143C47.8997 5.76845 47.8493 5.37372 47.7626 4.9917L46.8525 5.2357C46.9194 5.53905 46.9581 5.85276 46.9722 6.17307Z" fill="#05778F"/>
<path d="M45.2216 2.42106L45.8896 1.75312C45.5985 1.48274 45.2834 1.24015 44.9456 1.02771L44.4736 1.8445C44.7402 2.01502 44.9894 2.20862 45.2216 2.42106Z" fill="#05778F"/>
<path d="M46.1298 3.50143L46.9471 3.02991C46.7346 2.69217 46.4916 2.37657 46.2217 2.08594L45.5537 2.75388C45.7662 2.98563 45.9593 3.23529 46.1298 3.50143Z" fill="#05778F"/>
<path d="M42.7406 1.12277L42.9846 0.212707C42.6026 0.125564 42.2083 0.0756375 41.8037 0.0610352V1.00312C42.124 1.01725 42.4373 1.05588 42.7406 1.12277Z" fill="#05778F"/>
<path d="M46.7337 4.78002L47.6456 4.53601C47.5274 4.15211 47.3724 3.78422 47.1868 3.43518L46.3682 3.90811C46.5137 4.18602 46.6381 4.47666 46.7337 4.78002Z" fill="#05778F"/>
</svg>
